<svg width="369" height="369" viewBox="0 0 369 369" fill="none" xmlns="http://www.w3.org/2000/svg">
<g clip-path="url(#clip0_701_4160)">
<path d="M185.451 47.1191C185.434 48.0662 185.231 49.0007 184.853 49.8692C184.476 50.7377 183.931 51.5232 183.25 52.1809C182.569 52.8385 181.765 53.3554 180.884 53.702C180.004 54.0486 179.063 54.2182 178.117 54.2009H144.095C143.972 54.1978 143.849 54.1946 143.725 54.1851C143.407 54.1645 143.09 54.1212 142.777 54.0554V41.9992C142.777 41.5168 142.924 41.0459 143.198 40.6495C143.473 40.253 143.862 39.95 144.313 39.781H178.377C180.286 39.8171 182.103 40.61 183.429 41.9857C184.756 43.3614 185.483 45.2076 185.451 47.1191Z" fill="#616161"/>
<path d="M365.073 39H145.657C145.184 38.9986 144.716 39.0857 144.275 39.2569C143.527 39.5369 142.883 40.0388 142.428 40.6956C141.973 41.3523 141.729 42.1325 141.73 42.9316V282.498C141.73 283.541 142.144 284.54 142.88 285.278C143.617 286.015 144.616 286.429 145.657 286.43H365.073C366.114 286.429 367.113 286.015 367.849 285.278C368.586 284.54 369 283.541 369 282.498V42.9316C369 41.889 368.586 40.8892 367.849 40.152C367.113 39.4147 366.114 39.0004 365.073 39ZM367.429 282.498C367.428 283.123 367.179 283.723 366.738 284.165C366.296 284.607 365.697 284.856 365.073 284.857H145.657C145.033 284.856 144.434 284.607 143.992 284.165C143.55 283.723 143.302 283.123 143.301 282.498V42.9316C143.302 42.3063 143.55 41.7068 143.992 41.2646C144.434 40.8224 145.033 40.5736 145.657 40.5727H365.073C365.697 40.5736 366.296 40.8224 366.738 41.2646C367.18 41.7068 367.428 42.3063 367.429 42.9316V282.498Z" fill="#616161"/>
<path d="M248.619 121.313C251.466 121.313 253.773 119.003 253.773 116.153C253.773 113.304 251.466 110.993 248.619 110.993C245.772 110.993 243.465 113.304 243.465 116.153C243.465 119.003 245.772 121.313 248.619 121.313Z" fill="#1D72F2"/>
<path d="M270.096 121.313C272.943 121.313 275.25 119.003 275.25 116.153C275.25 113.304 272.943 110.993 270.096 110.993C267.249 110.993 264.941 113.304 264.941 116.153C264.941 119.003 267.249 121.313 270.096 121.313Z" fill="#1D72F2"/>
<path d="M205.665 163.952C208.512 163.952 210.82 161.642 210.82 158.792C210.82 155.943 208.512 153.633 205.665 153.633C202.818 153.633 200.511 155.943 200.511 158.792C200.511 161.642 202.818 163.952 205.665 163.952Z" fill="#1D72F2"/>
<path d="M227.142 163.952C229.989 163.952 232.297 161.642 232.297 158.792C232.297 155.943 229.989 153.633 227.142 153.633C224.296 153.633 221.988 155.943 221.988 158.792C221.988 161.642 224.296 163.952 227.142 163.952Z" fill="#1D72F2"/>
<path d="M248.619 185.272C251.466 185.272 253.773 182.962 253.773 180.112C253.773 177.262 251.466 174.952 248.619 174.952C245.772 174.952 243.465 177.262 243.465 180.112C243.465 182.962 245.772 185.272 248.619 185.272Z" fill="#1D72F2"/>
<path d="M270.096 185.272C272.943 185.272 275.25 182.962 275.25 180.112C275.25 177.262 272.943 174.952 270.096 174.952C267.249 174.952 264.941 177.262 264.941 180.112C264.941 182.962 267.249 185.272 270.096 185.272Z" fill="#1D72F2"/>
<path d="M291.573 185.272C294.419 185.272 296.727 182.962 296.727 180.112C296.727 177.262 294.419 174.952 291.573 174.952C288.726 174.952 286.418 177.262 286.418 180.112C286.418 182.962 288.726 185.272 291.573 185.272Z" fill="#1D72F2"/>
<path d="M162.415 42.8122C162.3 42.9272 162.236 43.0832 162.236 43.2459C162.236 43.4085 162.3 43.5645 162.415 43.6796L165.045 46.3127H158.559C158.397 46.3132 158.242 46.378 158.127 46.493C158.013 46.608 157.948 46.7637 157.948 46.9261C157.948 47.0884 158.013 47.2442 158.127 47.3591C158.242 47.4741 158.397 47.5389 158.559 47.5394H165.045L162.415 50.1725C162.3 50.2875 162.236 50.4435 162.236 50.6062C162.236 50.7689 162.3 50.9249 162.415 51.0399C162.53 51.1549 162.686 51.2196 162.848 51.2196C163.011 51.2196 163.167 51.1549 163.282 51.0399L166.958 47.3598C167.073 47.2447 167.137 47.0887 167.137 46.9261C167.137 46.7634 167.073 46.6074 166.958 46.4923L163.282 42.8122C163.167 42.6972 163.011 42.6326 162.848 42.6326C162.686 42.6326 162.53 42.6972 162.415 42.8122Z" fill="white"/>
<path d="M317.758 127.161H179.356C178.82 127.161 178.386 126.927 178.386 126.637C178.386 126.348 178.82 126.113 179.356 126.113H317.758C318.293 126.113 318.727 126.348 318.727 126.637C318.727 126.927 318.293 127.161 317.758 127.161Z" fill="#616161"/>
<path d="M317.758 104.003H179.356C178.82 104.003 178.386 103.768 178.386 103.479C178.386 103.189 178.82 102.954 179.356 102.954H317.758C318.293 102.954 318.727 103.189 318.727 103.479C318.727 103.768 318.293 104.003 317.758 104.003Z" fill="#616161"/>
<path d="M318.204 148.792H179.034C178.895 148.792 178.762 148.737 178.664 148.639C178.566 148.54 178.51 148.407 178.51 148.268C178.51 148.129 178.566 147.996 178.664 147.897C178.762 147.799 178.895 147.744 179.034 147.744H318.204C318.343 147.744 318.476 147.799 318.574 147.897C318.672 147.996 318.727 148.129 318.727 148.268C318.727 148.407 318.672 148.54 318.574 148.639C318.476 148.737 318.343 148.792 318.204 148.792Z" fill="#616161"/>
<path d="M318.204 169.761H179.034C178.895 169.761 178.762 169.705 178.664 169.607C178.566 169.509 178.51 169.375 178.51 169.236C178.51 169.097 178.566 168.964 178.664 168.866C178.762 168.767 178.895 168.712 179.034 168.712H318.204C318.343 168.712 318.476 168.767 318.574 168.866C318.672 168.964 318.727 169.097 318.727 169.236C318.727 169.375 318.672 169.509 318.574 169.607C318.476 169.705 318.343 169.761 318.204 169.761Z" fill="#616161"/>
<path d="M318.204 191.254H179.034C178.895 191.254 178.762 191.198 178.664 191.1C178.566 191.002 178.51 190.868 178.51 190.729C178.51 190.59 178.566 190.457 178.664 190.359C178.762 190.26 178.895 190.205 179.034 190.205H318.204C318.343 190.205 318.476 190.26 318.574 190.359C318.672 190.457 318.727 190.59 318.727 190.729C318.727 190.868 318.672 191.002 318.574 191.1C318.476 191.198 318.343 191.254 318.204 191.254Z" fill="#616161"/>
<path d="M301.971 190.173V103.804C301.971 103.624 302.205 103.479 302.495 103.479C302.784 103.479 303.018 103.624 303.018 103.804V190.173C303.018 190.353 302.784 190.498 302.495 190.498C302.205 190.498 301.971 190.353 301.971 190.173Z" fill="#616161"/>
<path d="M280.501 190.173V103.804C280.501 103.624 280.735 103.479 281.024 103.479C281.314 103.479 281.548 103.624 281.548 103.804V190.173C281.548 190.353 281.314 190.498 281.024 190.498C280.735 190.498 280.501 190.353 280.501 190.173Z" fill="#616161"/>
<path d="M259.031 190.173V103.804C259.031 103.624 259.265 103.479 259.554 103.479C259.843 103.479 260.078 103.624 260.078 103.804V190.173C260.078 190.353 259.843 190.498 259.554 190.498C259.265 190.498 259.031 190.353 259.031 190.173Z" fill="#616161"/>
<path d="M238.084 190.173V103.804C238.084 103.624 238.318 103.479 238.608 103.479C238.897 103.479 239.131 103.624 239.131 103.804V190.173C239.131 190.353 238.897 190.498 238.608 190.498C238.318 190.498 238.084 190.353 238.084 190.173Z" fill="#616161"/>
<path d="M216.09 212.108V103.886C216.12 103.769 216.187 103.666 216.282 103.592C216.377 103.519 216.494 103.479 216.614 103.479C216.734 103.479 216.85 103.519 216.945 103.592C217.04 103.666 217.108 103.769 217.137 103.886V212.108C217.108 212.225 217.04 212.328 216.945 212.402C216.85 212.475 216.734 212.515 216.614 212.515C216.494 212.515 216.377 212.475 216.282 212.402C216.187 212.328 216.12 212.225 216.09 212.108Z" fill="#616161"/>
<path d="M194.096 212.108V103.886C194.126 103.769 194.193 103.666 194.288 103.592C194.383 103.519 194.5 103.479 194.62 103.479C194.74 103.479 194.857 103.519 194.951 103.592C195.046 103.666 195.114 103.769 195.144 103.886V212.108C195.114 212.225 195.046 212.328 194.951 212.402C194.857 212.475 194.74 212.515 194.62 212.515C194.5 212.515 194.383 212.475 194.288 212.402C194.193 212.328 194.126 212.225 194.096 212.108Z" fill="#616161"/>
<path d="M179.034 212.747C178.895 212.747 178.762 212.692 178.663 212.594C178.565 212.496 178.51 212.363 178.509 212.224C178.509 212.085 178.564 211.951 178.662 211.853C178.76 211.754 178.893 211.698 179.032 211.698L232.321 211.467C232.459 211.47 232.591 211.525 232.689 211.623C232.786 211.72 232.843 211.851 232.847 211.989C232.848 212.058 232.834 212.126 232.808 212.19C232.782 212.253 232.744 212.311 232.695 212.36C232.647 212.409 232.589 212.448 232.526 212.475C232.463 212.501 232.395 212.515 232.326 212.515L179.036 212.747H179.034Z" fill="#616161"/>
<path d="M217.995 81.0305C217.856 81.0306 217.723 80.9755 217.624 80.8773C217.526 80.779 217.471 80.6457 217.471 80.5067C217.471 80.3677 217.526 80.2343 217.624 80.1359C217.722 80.0375 217.855 79.9822 217.994 79.9821L292.734 79.8887H292.735C292.874 79.8886 293.007 79.9437 293.105 80.0419C293.204 80.1402 293.259 80.2735 293.259 80.4125C293.259 80.5515 293.204 80.6849 293.106 80.7833C293.008 80.8817 292.875 80.937 292.736 80.9371L217.996 81.0305H217.995Z" fill="#616161"/>
<path d="M243.302 251.938C241.227 251.938 239.199 251.322 237.473 250.168C235.748 249.013 234.403 247.373 233.609 245.454C232.815 243.535 232.607 241.423 233.012 239.386C233.417 237.348 234.416 235.477 235.883 234.008C237.351 232.539 239.22 231.539 241.255 231.134C243.29 230.728 245.4 230.936 247.317 231.731C249.234 232.526 250.873 233.872 252.026 235.6C253.179 237.327 253.794 239.357 253.794 241.435C253.794 242.814 253.523 244.18 252.995 245.454C252.468 246.728 251.695 247.886 250.721 248.861C249.747 249.837 248.59 250.61 247.317 251.138C246.044 251.666 244.68 251.938 243.302 251.938Z" fill="#616161"/>
<path d="M247.442 240.399H244.337V237.291C244.337 237.016 244.228 236.752 244.034 236.558C243.84 236.364 243.576 236.255 243.302 236.255C243.028 236.255 242.764 236.364 242.57 236.558C242.376 236.752 242.267 237.016 242.267 237.291V240.399H239.162C238.888 240.399 238.624 240.508 238.43 240.702C238.236 240.897 238.127 241.16 238.127 241.435C238.127 241.71 238.236 241.973 238.43 242.167C238.624 242.362 238.888 242.471 239.162 242.471H242.267V245.579C242.267 245.715 242.293 245.85 242.345 245.976C242.397 246.102 242.473 246.217 242.569 246.313C242.665 246.41 242.78 246.486 242.905 246.538C243.031 246.591 243.166 246.617 243.302 246.617C243.438 246.617 243.573 246.591 243.699 246.538C243.824 246.486 243.939 246.41 244.035 246.313C244.131 246.217 244.207 246.102 244.259 245.976C244.311 245.85 244.337 245.715 244.337 245.579V242.471H247.442C247.716 242.471 247.979 242.362 248.174 242.167C248.368 241.973 248.477 241.71 248.477 241.435C248.477 241.16 248.368 240.897 248.174 240.702C247.979 240.508 247.716 240.399 247.442 240.399Z" fill="white"/>
<path d="M267.39 251.938C265.315 251.938 263.287 251.322 261.562 250.168C259.836 249.013 258.491 247.373 257.697 245.454C256.903 243.535 256.695 241.423 257.1 239.386C257.505 237.348 258.504 235.477 259.972 234.008C261.439 232.539 263.308 231.539 265.344 231.134C267.379 230.728 269.488 230.936 271.406 231.731C273.323 232.526 274.961 233.872 276.114 235.6C277.267 237.327 277.882 239.357 277.882 241.435C277.882 242.814 277.611 244.18 277.084 245.454C276.556 246.728 275.784 247.886 274.809 248.861C273.835 249.837 272.678 250.61 271.406 251.138C270.133 251.666 268.768 251.938 267.39 251.938Z" fill="#616161"/>
<path d="M272.701 245.904L269.968 242.701C270.608 241.795 270.886 240.682 270.747 239.58C270.608 238.479 270.062 237.47 269.217 236.751C268.373 236.033 267.29 235.656 266.182 235.697C265.074 235.737 264.021 236.191 263.231 236.97C262.44 237.748 261.969 238.794 261.911 239.903C261.852 241.011 262.211 242.101 262.915 242.958C263.619 243.816 264.618 244.378 265.715 244.535C266.813 244.692 267.929 244.433 268.845 243.807L271.506 246.925C271.642 247.083 271.834 247.18 272.041 247.196C272.248 247.212 272.453 247.145 272.611 247.01C272.769 246.875 272.867 246.683 272.884 246.476C272.901 246.268 272.835 246.063 272.701 245.904ZM263.463 240.124C263.463 239.554 263.632 238.997 263.949 238.522C264.265 238.048 264.715 237.679 265.241 237.461C265.767 237.242 266.346 237.185 266.905 237.296C267.464 237.408 267.977 237.682 268.38 238.086C268.783 238.489 269.057 239.002 269.168 239.562C269.279 240.121 269.222 240.701 269.004 241.228C268.786 241.754 268.417 242.205 267.943 242.522C267.47 242.838 266.913 243.007 266.343 243.007C265.58 243.007 264.848 242.703 264.308 242.162C263.768 241.621 263.464 240.889 263.463 240.124Z" fill="white"/>
<path d="M217.995 252.973C217.856 252.974 217.723 252.918 217.624 252.82C217.526 252.722 217.471 252.589 217.471 252.45C217.471 252.311 217.526 252.177 217.624 252.079C217.722 251.98 217.855 251.925 217.994 251.925L292.734 251.831H292.735C292.874 251.831 293.007 251.886 293.105 251.985C293.204 252.083 293.259 252.216 293.259 252.355C293.259 252.494 293.204 252.628 293.106 252.726C293.008 252.824 292.875 252.88 292.736 252.88L217.996 252.973H217.995Z" fill="#616161"/>
<path d="M122.349 321.558L129.03 321.558L132.208 295.765L122.348 295.765L122.349 321.558Z" fill="#FFB6B6"/>
<path d="M120.648 319.374V328.039H142.186V327.767C142.186 325.541 141.302 323.406 139.73 321.833C138.158 320.259 136.026 319.374 133.802 319.374L129.864 316.386L129.66 316.47L122.528 319.374H120.648Z" fill="#2C2C2C"/>
<path d="M61.9902 312.864L67.9689 315.847L82.3074 294.182L73.4831 289.779L61.9902 312.864Z" fill="#FFB6B6"/>
<path d="M57.5776 317.906L76.8537 327.52L76.9742 327.279C77.466 326.293 77.7588 325.22 77.836 324.12C77.9132 323.021 77.7732 321.917 77.424 320.872C77.0748 319.827 76.5233 318.861 75.801 318.029C75.0786 317.197 74.1996 316.516 73.2142 316.024L71.0201 311.595L70.7897 311.579L63.1232 310.987L62.9661 310.908L61.437 310.148L57.5776 317.906Z" fill="#2C2C2C"/>
<path d="M126.88 182.921L90.0449 184.212L89.7883 183.838C89.7883 183.838 86.6463 191.177 86.6463 197.468C86.6463 199.559 88.0994 213.239 87.3607 215.827C87.2688 216.149 87.9009 216.938 87.6936 218.437C87.5591 219.409 86.8169 218.661 86.6463 220.009C86.5239 220.977 87.8303 221.511 87.6936 222.63C87.5443 223.853 85.7473 227.814 85.5855 229.174C83.8633 243.656 81.5703 264.636 81.5703 264.636C81.5703 264.636 72.3609 289.329 70.4127 289.73C67.1427 290.403 64.935 296.355 66.7471 297.593C67.6099 298.183 78.7623 302.148 78.7623 302.148C79.3751 302.259 81.2921 301.296 80.0709 299.02C79.846 298.601 81.1868 299.667 81.4097 299.166C81.6466 298.632 81.1814 296.51 81.4529 295.917C83.8901 290.6 87.6321 283.232 91.1783 279.448C96.4179 273.858 99.7361 266.738 100.649 259.127L108.782 213.978L111.57 226.639L113.877 228.921L113.244 234.241L113.353 239.405L119.113 260.898C119.113 260.898 119.977 301.036 118.59 302.311C117.838 303.001 114.65 311.505 120.684 312.271L131.649 311.424C131.649 311.424 133.126 308.308 132.388 307.199C131.649 306.089 131.693 306.392 132.595 304.577C133.496 302.762 133.126 299.686 133.126 299.686C134.563 285.231 135.129 270.703 134.823 256.18C134.274 232.327 130.943 204.924 130.943 204.365C130.915 203.795 131.02 203.225 131.25 202.702V201.196L129.835 195.862L126.88 182.921Z" fill="#2C2C2C"/>
<path d="M79.1917 196.333C78.8828 195.805 78.6934 195.215 78.6368 194.605C78.5803 193.996 78.6579 193.381 78.8643 192.805C79.0706 192.229 79.4007 191.705 79.8312 191.27C80.2618 190.835 80.7823 190.5 81.3561 190.289L81.0915 163.794L87.6196 167.928L86.8693 193.039C87.1605 194.028 87.0793 195.089 86.6411 196.022C86.2029 196.955 85.4382 197.694 84.4919 198.1C83.5455 198.506 82.4832 198.55 81.5064 198.225C80.5295 197.899 79.7059 197.226 79.1917 196.333Z" fill="#FFB8B8"/>
<path d="M80.6818 185.227L81.2375 185.2L81.3037 185.201L83.3596 185.194L86.7458 185.187L86.991 185.184L87.1015 185.205L88.2574 185.406L88.3053 185.095L90.5587 180.787L92.2911 178.401L91.6608 175.59L90.4177 174.04L92.5291 171.479L92.7958 170.214L94.5631 161.895L100.421 134.301L100.421 134.284L100.544 133.699L102.449 124.734L101.862 122.48L101.208 120.005C100.79 118.434 99.8204 117.067 98.4769 116.153C97.8939 115.758 97.2521 115.458 96.5754 115.264C95.7128 115.008 94.8068 114.933 93.9141 115.044L93.9041 115.047C93.3975 115.11 92.8997 115.231 92.4203 115.406L92.2295 115.481C91.9641 115.589 91.7058 115.713 91.4561 115.854C90.6823 116.284 90.0019 116.865 89.4543 117.561C88.9068 118.258 88.5031 119.056 88.2668 119.91L82.06 126.832L80.9683 130.748L80.6172 132.006L79.4921 138.71L79.5088 165.096L79.3085 166.291L79.0237 172.915L80.1368 174.433L78.8792 176.274L78.8361 177.285L78.8276 177.545L80.5073 179.252L80.6144 182.935L80.6818 185.227Z" fill="#616161"/>
<path d="M86.7449 191.547C96.0456 193.157 102.282 192.544 106.12 186.829C111.128 180.446 120.234 187.982 127.917 190.785L128.828 189.799L130.378 188.127L128.954 186.512L130.378 183.398L129.189 179.556L127.671 179.278L128.079 175.97L128.718 174.036L126.843 171.976L125.251 166.833L126.398 156.071C127.968 141.319 124.927 126.443 117.695 113.494L113.343 109.584L111.537 107.959L109.112 103.429L106.551 103.728L99.618 104.53L99.3824 105.096L97.6805 109.206L91.4978 115.855C90.6234 116.795 89.9589 117.911 89.5487 119.128C89.1385 120.345 88.9918 121.636 89.1186 122.915L89.2966 124.707L89.4275 125.997L90.0454 132.204L92.5643 157.56L92.7528 158.907L94.7794 173.486C91.4855 176.673 91.285 175.977 89.8868 181.586C89.7297 182.21 87.9074 183.599 87.7922 184.208C87.6299 185.067 86.7449 191.547 86.7449 191.547Z" fill="#616161"/>
<path d="M105.629 100.758C112.28 100.758 117.671 95.3604 117.671 88.7027C117.671 82.0449 112.28 76.6477 105.629 76.6477C98.9782 76.6477 93.5867 82.0449 93.5867 88.7027C93.5867 95.3604 98.9782 100.758 105.629 100.758Z" fill="#FFB6B6"/>
<path d="M93.0299 79.628C94.6463 77.9432 97.2284 77.1123 99.421 77.9117C99.9113 76.5073 100.777 75.2643 101.924 74.3183C103.071 73.3724 104.456 72.7595 105.927 72.5466C107.397 72.3337 108.899 72.5288 110.266 73.1107C111.634 73.6927 112.816 74.6391 113.684 75.847C114.081 75.6687 114.517 75.5959 114.95 75.6358C115.383 75.6756 115.798 75.8267 116.156 76.0744C116.866 76.5799 117.438 77.2556 117.82 78.0396C118.804 79.912 119.263 82.0166 119.148 84.1294C119.032 86.2422 118.346 88.284 117.164 90.0377C117.635 89.0851 116.31 90.7257 115.018 90.2958C113.909 90.0048 109.352 87.0799 108.215 87.2278C107.078 87.3756 106.709 86.4577 105.597 86.1793C104.507 85.8305 101.726 90.3392 101.169 93.3225C101.063 93.8879 100.807 94.5903 100.232 94.6032C99.5248 94.6191 99.3129 93.6049 98.7162 93.224C98.435 93.0808 98.1092 93.0525 97.8075 93.145C97.5058 93.2376 97.2518 93.4438 97.099 93.7201C96.9595 94.0041 96.8898 94.3174 96.8958 94.6338C96.9017 94.9503 96.983 95.2607 97.133 95.5393C97.4379 96.0931 97.8301 96.594 98.2945 97.0226L97.9855 97.1925C97.6812 97.4107 97.3105 97.5162 96.9371 97.4908C96.5636 97.4654 96.2106 97.3108 95.9385 97.0534C94.7884 97.5728 91.6603 94.6435 92.0755 92.8712C91.2021 90.6987 90.7245 88.3873 90.6653 86.0462C90.617 83.6849 91.4616 81.3925 93.0299 79.628Z" fill="#2C2C2C"/>
<path d="M181.367 151.485C180.784 151.669 180.168 151.723 179.561 151.642C178.955 151.562 178.374 151.35 177.858 151.02C177.343 150.691 176.906 150.252 176.578 149.735C176.251 149.218 176.04 148.636 175.961 148.029L150.098 142.397L155.576 136.945L179.866 143.259C180.894 143.195 181.909 143.51 182.72 144.145C183.531 144.78 184.081 145.691 184.266 146.705C184.451 147.719 184.258 148.765 183.724 149.646C183.19 150.527 182.351 151.181 181.367 151.485Z" fill="#FFB8B8"/>
<path d="M111.473 114.109C109.974 114.163 108.536 114.717 107.386 115.681C106.75 116.209 106.219 116.853 105.822 117.579C105.386 118.366 105.113 119.234 105.021 120.13L105.022 120.135C104.888 121.454 105.147 122.784 105.767 123.955C106.387 125.127 107.339 126.089 108.505 126.72L117.025 131.342L118.104 131.926C125.363 139.333 137.604 143.204 151.686 145.773L159.782 147.99L162.503 146.979L163.162 149.569L165.872 149.658L167.346 149.351L170.429 148.141L171.018 146.955L171.018 146.95L172.283 141.33L172.292 141.293L172.291 141.288L172.586 140.002L170.848 139.197L169.335 137.174L166.6 137.229L164.106 137.447L163.375 135.735L131.767 121.094L125.223 118.059L125.207 118.05L124.895 117.903L116.357 113.949L114.033 114.023L111.473 114.109Z" fill="#616161"/>
<path d="M180.543 158.008C183.389 158.008 185.697 155.698 185.697 152.848C185.697 149.999 183.389 147.688 180.543 147.688C177.696 147.688 175.388 149.999 175.388 152.848C175.388 155.698 177.696 158.008 180.543 158.008Z" fill="#E84531"/>
<path d="M32.7828 325.384C29.0012 325.718 25.1929 325.202 21.636 323.873C18.0791 322.545 14.8636 320.438 12.2241 317.707C8.77292 314.064 6.40456 309.376 4.11413 304.842C3.4474 303.522 2.75821 302.158 2.05706 300.85C1.27536 299.425 0.937995 297.797 1.08842 296.178C1.23884 294.559 1.87016 293.022 2.90105 291.765C3.88896 290.508 5.23012 289.576 6.75172 289.09C8.27332 288.603 9.90564 288.584 11.4383 289.034L11.7726 289.131L14.7806 300.881C15.2293 299.128 16.1925 295.179 16.8008 291.31L16.8519 290.986L17.1514 291.12C20.2923 292.511 23.2456 294.293 25.9418 296.423C30.718 300.258 34.6027 305.088 37.3258 310.578C40.0489 316.068 41.5451 322.085 41.7104 328.213L41.7184 328.578L32.7828 325.384Z" fill="#E84531"/>
<path d="M269.242 74.0282H241.488C240.863 74.0282 240.263 73.7797 239.822 73.3373C239.38 72.8949 239.131 72.2949 239.131 71.6693C239.131 71.0436 239.38 70.4436 239.822 70.0012C240.263 69.5588 240.863 69.3103 241.488 69.3103H269.242C269.867 69.3103 270.466 69.5588 270.908 70.0012C271.35 70.4436 271.599 71.0436 271.599 71.6693C271.599 72.2949 271.35 72.8949 270.908 73.3373C270.466 73.7797 269.867 74.0282 269.242 74.0282Z" fill="#616161"/>
<path d="M356.659 53.9961C355.518 53.9961 354.403 53.6574 353.454 53.0227C352.505 52.3881 351.766 51.4861 351.329 50.4307C350.892 49.3753 350.778 48.2141 351.001 47.0937C351.223 45.9733 351.773 44.9442 352.58 44.1365C353.386 43.3287 354.414 42.7787 355.534 42.5558C356.653 42.3329 357.813 42.4473 358.867 42.8845C359.921 43.3216 360.822 44.0619 361.456 45.0117C362.09 45.9615 362.429 47.0782 362.429 48.2205C362.429 49.7523 361.821 51.2213 360.739 52.3045C359.657 53.3876 358.189 53.9961 356.659 53.9961Z" fill="#616161"/>
</g>
<defs>
<clipPath id="clip0_701_4160">
<rect width="368" height="290" fill="white" transform="translate(1 39)"/>
</clipPath>
</defs>
</svg>
