<svg width="323" height="290" viewBox="0 0 323 290" fill="none" xmlns="http://www.w3.org/2000/svg">
<g clip-path="url(#clip0_876_4142)">
<path d="M320.166 110.902C320.051 110.902 319.938 110.866 319.843 110.8L163.126 1.63914C162.649 1.30848 162.082 1.13178 161.502 1.13277C160.922 1.13376 160.356 1.31239 159.88 1.64467L4.29214 110.799C4.16908 110.886 4.01677 110.919 3.86871 110.893C3.72066 110.867 3.58898 110.784 3.50267 110.661C3.41635 110.538 3.38245 110.385 3.40844 110.237C3.43442 110.089 3.51816 109.957 3.64122 109.871L159.229 0.71648C159.895 0.251363 160.688 0.00134075 161.5 5.37724e-06C162.313 -0.00133 163.106 0.246084 163.774 0.709008L320.491 109.87C320.59 109.939 320.664 110.038 320.703 110.152C320.742 110.266 320.743 110.39 320.707 110.505C320.671 110.62 320.599 110.721 320.502 110.792C320.404 110.863 320.287 110.902 320.166 110.902Z" fill="#616161"/>
<path d="M13.1829 114.771L161.656 4.71484L311.256 122.602L169.306 206.767L92.2397 189.197L13.1829 114.771Z" fill="#E6E6E6"/>
<path d="M98.7449 258.752H25.3954C24.945 258.752 24.4989 258.664 24.0826 258.492C23.6663 258.32 23.288 258.068 22.9694 257.75C22.6507 257.431 22.3979 257.053 22.2254 256.637C22.0529 256.221 21.9641 255.775 21.9641 255.324C21.9641 254.874 22.0529 254.428 22.2254 254.012C22.3979 253.596 22.6507 253.218 22.9694 252.899C23.288 252.581 23.6663 252.329 24.0826 252.157C24.4989 251.985 24.945 251.896 25.3954 251.897H98.7449C99.1953 251.896 99.6413 251.985 100.058 252.157C100.474 252.329 100.852 252.581 101.171 252.899C101.49 253.218 101.742 253.596 101.915 254.012C102.087 254.428 102.176 254.874 102.176 255.324C102.176 255.775 102.087 256.221 101.915 256.637C101.742 257.053 101.49 257.431 101.171 257.75C100.852 258.068 100.474 258.32 100.058 258.492C99.6413 258.664 99.1953 258.752 98.7449 258.752Z" fill="#1D72F2"/>
<path d="M51.7115 244.016H25.3954C24.945 244.017 24.4989 243.928 24.0826 243.756C23.6663 243.584 23.288 243.332 22.9694 243.014C22.6507 242.695 22.3979 242.317 22.2254 241.901C22.0529 241.485 21.9641 241.039 21.9641 240.589C21.9641 240.138 22.0529 239.692 22.2254 239.276C22.3979 238.86 22.6507 238.482 22.9694 238.163C23.288 237.845 23.6663 237.593 24.0826 237.421C24.4989 237.249 24.945 237.161 25.3954 237.161H51.7115C52.1619 237.161 52.608 237.249 53.0243 237.421C53.4406 237.593 53.8188 237.845 54.1375 238.163C54.4562 238.482 54.709 238.86 54.8815 239.276C55.054 239.692 55.1428 240.138 55.1428 240.589C55.1428 241.039 55.054 241.485 54.8815 241.901C54.709 242.317 54.4562 242.695 54.1375 243.014C53.8188 243.332 53.4406 243.584 53.0243 243.756C52.608 243.928 52.1619 244.017 51.7115 244.016Z" fill="#1D72F2"/>
<path d="M163.744 176.071C163.187 176.072 162.634 175.964 162.118 175.753L70.55 137.752V18.8023C70.5513 17.7505 70.9696 16.7421 71.7132 15.9983C72.4568 15.2546 73.4651 14.8362 74.5167 14.835H250.183C251.235 14.8362 252.243 15.2546 252.987 15.9983C253.731 16.7421 254.149 17.7505 254.15 18.8023V137.835L253.978 137.908L165.419 175.734C164.889 175.957 164.319 176.072 163.744 176.071Z" fill="white"/>
<path d="M163.744 176.354C163.15 176.355 162.561 176.24 162.01 176.015L70.2668 137.941V18.802C70.2681 17.675 70.7163 16.5946 71.5131 15.7977C72.3098 15.0008 73.3901 14.5525 74.5168 14.5513H250.183C251.31 14.5525 252.391 15.0008 253.187 15.7977C253.984 16.5946 254.432 17.675 254.433 18.802V138.022L165.53 175.994C164.965 176.232 164.358 176.355 163.744 176.354ZM71.4001 137.184L162.443 174.967C163.292 175.311 164.243 175.306 165.088 174.951L253.3 137.273V18.802C253.299 17.9756 252.971 17.1833 252.386 16.5989C251.802 16.0145 251.01 15.6858 250.184 15.6848H74.5169C73.6906 15.6858 72.8984 16.0145 72.3141 16.5989C71.7299 17.1833 71.4012 17.9756 71.4002 18.802L71.4001 137.184Z" fill="#616161"/>
<path d="M319.033 109.769H318.92L253.867 137.551L164.86 175.564C164.513 175.711 164.139 175.787 163.762 175.789C163.385 175.791 163.011 175.719 162.662 175.576L70.8333 137.472L4.18193 109.814L4.08011 109.769H3.96667C2.915 109.77 1.90674 110.188 1.1631 110.932C0.419454 111.676 0.00116691 112.684 0 113.736V286.033C0.00116841 287.085 0.419454 288.093 1.1631 288.837C1.90674 289.581 2.915 289.999 3.96667 290H319.033C320.085 289.999 321.093 289.581 321.837 288.837C322.581 288.093 322.999 287.085 323 286.033V113.736C322.999 112.684 322.581 111.676 321.837 110.932C321.093 110.188 320.085 109.77 319.033 109.769ZM321.867 286.033C321.866 286.784 321.568 287.505 321.036 288.036C320.505 288.568 319.785 288.866 319.033 288.867H3.96667C3.21531 288.866 2.49482 288.568 1.96353 288.036C1.43224 287.505 1.13363 286.784 1.13333 286.033V113.736C1.13436 113.003 1.41857 112.299 1.92654 111.771C2.43451 111.243 3.12692 110.931 3.85903 110.902L70.8333 138.696L162.225 176.624C163.215 177.027 164.323 177.021 165.308 176.607L253.867 138.781L319.147 110.902C319.878 110.934 320.568 111.246 321.075 111.774C321.581 112.301 321.865 113.004 321.867 113.736V286.033Z" fill="#616161"/>
<path d="M162.829 142.342C159.448 142.348 156.158 141.255 153.453 139.227L153.285 139.101L117.976 112.062C116.34 110.809 114.968 109.246 113.937 107.462C112.905 105.678 112.235 103.709 111.965 101.666C111.695 99.6236 111.829 97.5477 112.361 95.5571C112.893 93.5665 113.811 91.7001 115.064 90.0646C116.317 88.4291 117.88 87.0564 119.663 86.0249C121.447 84.9934 123.416 84.3233 125.458 84.0529C127.5 83.7826 129.576 83.9171 131.566 84.449C133.556 84.9809 135.422 85.8996 137.058 87.1528L159.928 104.693L213.976 34.1947C215.229 32.5596 216.793 31.1874 218.576 30.1566C220.36 29.1257 222.329 28.4563 224.372 28.1867C226.414 27.917 228.49 28.0524 230.48 28.585C232.47 29.1176 234.335 30.0371 235.97 31.2909L235.634 31.7472L235.979 31.2975C239.276 33.8324 241.434 37.5721 241.978 41.6962C242.523 45.8202 241.409 49.9918 238.882 53.2957L175.309 136.218C173.839 138.129 171.948 139.676 169.784 140.738C167.62 141.799 165.24 142.348 162.829 142.342Z" fill="#1D72F2"/>
</g>
<defs>
<clipPath id="clip0_876_4142">
<rect width="323" height="290" fill="white"/>
</clipPath>
</defs>
</svg>
