<svg width="331" height="297" viewBox="0 0 331 297" fill="none" xmlns="http://www.w3.org/2000/svg">
<path d="M289.669 177.815C289.962 177.727 290.262 177.663 290.565 177.623L302.661 153.013L298.968 147.47L306.596 140.796L316.184 152.543L296.656 180.998C297.136 182.074 297.278 183.271 297.063 184.43C296.847 185.589 296.284 186.654 295.449 187.485C294.614 188.316 293.545 188.872 292.387 189.08C291.228 189.288 290.033 189.138 288.962 188.65C287.89 188.162 286.992 187.359 286.388 186.347C285.783 185.336 285.5 184.164 285.577 182.988C285.654 181.811 286.087 180.686 286.818 179.762C287.549 178.838 288.543 178.159 289.669 177.815Z" fill="#FFB8B8"/>
<path d="M310.32 144.196C310.155 144.37 309.966 144.519 309.758 144.639L297.381 151.823C297.084 151.995 296.754 152.104 296.412 152.143C296.07 152.181 295.724 152.148 295.396 152.046C295.068 151.944 294.764 151.774 294.504 151.548C294.245 151.323 294.035 151.045 293.888 150.734L287.868 138.001C287.612 137.465 287.557 136.855 287.713 136.282C287.869 135.709 288.225 135.211 288.717 134.879L296.39 129.653C296.869 129.327 297.446 129.179 298.023 129.234C298.6 129.289 299.139 129.544 299.548 129.954L310.272 140.729C310.728 141.187 310.988 141.806 310.997 142.453C311.006 143.1 310.763 143.725 310.32 144.196Z" fill="#616161"/>
<path d="M327.698 285.214L321.163 286.994L311.195 262.605L320.84 259.978L327.698 285.214Z" fill="#FFB8B8"/>
<path d="M315.987 286.396L328.59 282.963L330.749 290.908L310.211 296.502C309.928 295.459 309.852 294.37 309.989 293.297C310.126 292.225 310.472 291.19 311.009 290.251C311.545 289.313 312.261 288.489 313.115 287.828C313.969 287.166 314.945 286.68 315.987 286.396Z" fill="#2C2C2C"/>
<path d="M271.833 290.206L265.061 290.205L261.839 264.052L271.834 264.052L271.833 290.206Z" fill="#FFB8B8"/>
<path d="M260.224 288.269H273.284V296.502H252C252 295.421 252.213 294.35 252.626 293.351C253.039 292.352 253.645 291.445 254.409 290.68C255.172 289.916 256.079 289.309 257.077 288.895C258.074 288.482 259.144 288.269 260.224 288.269Z" fill="#2C2C2C"/>
<path d="M278.969 120.972C286.462 120.972 292.536 114.89 292.536 107.388C292.536 99.8855 286.462 93.8037 278.969 93.8037C271.475 93.8037 265.401 99.8855 265.401 107.388C265.401 114.89 271.475 120.972 278.969 120.972Z" fill="#FFB8B8"/>
<path d="M271.419 271.559H262.164C261.531 271.557 260.923 271.316 260.462 270.882C260 270.448 259.721 269.855 259.68 269.223C256.923 225.331 258.536 193.845 264.757 170.138C264.784 170.035 264.818 169.933 264.858 169.833L265.353 168.593C265.536 168.13 265.855 167.733 266.266 167.454C266.678 167.175 267.164 167.026 267.661 167.028H286.693C287.051 167.028 287.406 167.105 287.732 167.255C288.057 167.405 288.347 167.624 288.58 167.897L291.165 170.917C291.215 170.976 291.263 171.035 291.308 171.099C302.964 187.373 313.41 219.191 325.509 261.957C325.687 262.578 325.616 263.245 325.311 263.815C325.006 264.385 324.49 264.813 323.874 265.008L313.928 268.194C313.357 268.374 312.741 268.343 312.191 268.106C311.641 267.87 311.194 267.443 310.932 266.904L285.122 213.308C284.942 212.933 284.645 212.627 284.277 212.434C283.909 212.241 283.489 212.172 283.079 212.237C282.669 212.302 282.29 212.497 281.999 212.794C281.709 213.091 281.521 213.474 281.465 213.886L273.882 269.407C273.798 270.002 273.503 270.547 273.051 270.943C272.599 271.338 272.019 271.557 271.419 271.559Z" fill="#2C2C2C"/>
<path d="M290.122 171.137C290.096 171.137 290.07 171.137 290.044 171.136L266.927 170.406C266.332 170.389 265.764 170.159 265.325 169.757C264.886 169.356 264.606 168.81 264.535 168.219C261.605 144.469 269.642 138.107 273.233 136.474C273.533 136.338 273.793 136.127 273.988 135.861C274.183 135.596 274.306 135.284 274.345 134.957L274.656 132.467C274.709 132.028 274.878 131.61 275.147 131.258C280.778 123.955 288.467 121.616 292.549 120.873C292.88 120.813 293.22 120.822 293.547 120.897C293.875 120.973 294.184 121.115 294.455 121.314C294.727 121.513 294.955 121.766 295.126 122.056C295.297 122.346 295.407 122.668 295.45 123.002L295.915 126.576C295.963 126.917 296.099 127.24 296.309 127.512C308.053 142.883 294.97 165.578 292.228 169.971C292.004 170.328 291.693 170.622 291.325 170.826C290.957 171.03 290.543 171.137 290.122 171.137Z" fill="#616161"/>
<path d="M306.342 108.917C303.315 104.65 299.686 100.846 295.567 97.623C292.143 94.9453 288.332 92.6576 284.127 91.5633C279.922 90.469 275.278 90.6553 271.442 92.6967C267.605 94.7381 263.639 98.794 263.615 103.144C263.607 104.541 263.962 106.432 265.337 106.19L265.734 106.243C269.05 105.572 272.366 104.902 275.681 104.231C277.094 109.138 278.506 114.045 279.918 118.952C280.216 119.986 280.615 121.142 281.595 121.583C282.519 121.999 283.587 121.607 284.521 121.217C284.675 121.153 285.995 118.185 285.995 118.185C286.028 118.092 286.085 118.01 286.161 117.947C286.236 117.884 286.327 117.842 286.424 117.826C286.521 117.809 286.621 117.819 286.712 117.855C286.804 117.89 286.885 117.949 286.947 118.026L287.731 119.007C287.881 119.195 288.088 119.328 288.32 119.388C288.552 119.447 288.798 119.429 289.019 119.337C294.426 117.077 299.834 114.817 305.241 112.557C305.988 112.245 306.823 111.837 307.04 111.056C307.248 110.307 306.791 109.55 306.342 108.917Z" fill="#2C2C2C"/>
<path d="M278.356 210.812C277.981 210.81 277.615 210.689 277.313 210.466L274.798 208.637C274.59 208.484 274.338 208.402 274.08 208.402C273.821 208.402 273.57 208.484 273.361 208.637L270.846 210.466C270.543 210.686 270.178 210.805 269.803 210.805C269.428 210.805 269.063 210.686 268.76 210.466C268.457 210.245 268.231 209.934 268.115 209.577C267.999 209.22 267.999 208.836 268.115 208.479L269.075 205.519C269.156 205.273 269.156 205.008 269.076 204.762C268.996 204.516 268.84 204.302 268.631 204.151L266.117 202.321C265.813 202.101 265.588 201.79 265.472 201.433C265.356 201.076 265.356 200.691 265.472 200.334C265.588 199.977 265.813 199.666 266.117 199.446C266.42 199.225 266.785 199.106 267.16 199.106H270.268C270.526 199.107 270.778 199.025 270.987 198.873C271.196 198.721 271.352 198.507 271.431 198.26L272.391 195.301C272.507 194.944 272.733 194.633 273.036 194.412C273.339 194.192 273.705 194.073 274.08 194.073C274.454 194.073 274.82 194.192 275.123 194.412C275.426 194.633 275.652 194.944 275.768 195.301L276.728 198.26C276.808 198.507 276.963 198.721 277.172 198.873C277.381 199.025 277.633 199.107 277.891 199.106H280.999C281.374 199.106 281.739 199.225 282.042 199.446C282.346 199.666 282.571 199.977 282.687 200.334C282.803 200.691 282.803 201.076 282.687 201.433C282.572 201.79 282.346 202.101 282.043 202.321L279.528 204.15C279.319 204.302 279.163 204.516 279.083 204.762C279.003 205.008 279.004 205.273 279.084 205.519L280.044 208.479C280.164 208.835 280.167 209.221 280.05 209.579C279.934 209.937 279.706 210.248 279.399 210.466C279.097 210.689 278.732 210.81 278.356 210.812Z" fill="#1D72F2"/>
<path d="M287.966 204.895C288.676 204.396 289.268 203.747 289.701 202.995C290.134 202.242 290.397 201.403 290.471 200.538C290.545 199.672 290.428 198.801 290.13 197.986C289.831 197.17 289.358 196.43 288.743 195.818L293.036 143.9L280.252 145.661L280.008 196.104C279.049 197.206 278.527 198.623 278.542 200.086C278.556 201.548 279.106 202.954 280.087 204.038C281.068 205.121 282.412 205.807 283.864 205.965C285.316 206.123 286.775 205.742 287.966 204.895Z" fill="#FFB8B8"/>
<path d="M293.872 151.376C293.632 151.376 293.394 151.341 293.165 151.273L279.44 147.231C279.11 147.134 278.803 146.97 278.54 146.748C278.277 146.526 278.063 146.252 277.911 145.944C277.759 145.635 277.673 145.298 277.658 144.954C277.642 144.61 277.699 144.266 277.823 143.945L282.902 130.808C283.114 130.253 283.518 129.793 284.041 129.511C284.563 129.23 285.169 129.146 285.748 129.275L294.816 131.248C295.382 131.372 295.887 131.689 296.244 132.146C296.602 132.602 296.788 133.169 296.773 133.749L296.351 148.954C296.333 149.601 296.064 150.216 295.601 150.668C295.138 151.12 294.518 151.373 293.872 151.376Z" fill="#616161"/>
<path d="M238.638 216.251H3.86681C2.84162 216.25 1.85875 215.842 1.13383 215.116C0.408914 214.39 0.00115067 213.406 0 212.38V142.14C0.00115067 141.113 0.408914 140.129 1.13383 139.403C1.85875 138.677 2.84162 138.269 3.86681 138.268H238.638C239.663 138.269 240.646 138.677 241.371 139.403C242.095 140.129 242.503 141.113 242.504 142.14V212.38C242.503 213.406 242.095 214.39 241.371 215.116C240.646 215.842 239.663 216.25 238.638 216.251ZM3.86681 139.374C3.13454 139.375 2.43251 139.667 1.91472 140.185C1.39693 140.704 1.10565 141.406 1.1048 142.14V212.38C1.10565 213.113 1.39693 213.816 1.91472 214.334C2.43251 214.853 3.13454 215.144 3.86681 215.145H238.638C239.37 215.144 240.072 214.853 240.59 214.334C241.107 213.816 241.399 213.113 241.4 212.38V142.14C241.399 141.406 241.107 140.704 240.59 140.185C240.072 139.667 239.37 139.375 238.638 139.374H3.86681Z" fill="#2C2C2C"/>
<path d="M106.6 245.827C106.14 245.825 105.692 245.677 105.322 245.403L102.241 243.163C101.986 242.976 101.677 242.875 101.361 242.875C101.044 242.875 100.736 242.976 100.48 243.163L97.4 245.403C97.0285 245.674 96.5811 245.819 96.1219 245.819C95.6627 245.819 95.2152 245.674 94.8437 245.403C94.4722 245.133 94.1956 244.752 94.0537 244.315C93.9117 243.878 93.9117 243.407 94.0535 242.969L95.2302 239.344C95.3286 239.043 95.3289 238.718 95.2311 238.417C95.1333 238.115 94.9425 237.853 94.6861 237.667L91.6057 235.426C91.2342 235.156 90.9576 234.775 90.8157 234.338C90.6738 233.9 90.6738 233.429 90.8157 232.992C90.9576 232.555 91.2341 232.174 91.6057 231.903C91.9772 231.633 92.4246 231.488 92.8838 231.488H96.6915C97.008 231.488 97.3164 231.388 97.5724 231.202C97.8284 231.016 98.0188 230.753 98.116 230.451L99.2925 226.826C99.4344 226.389 99.7109 226.007 100.082 225.737C100.454 225.467 100.901 225.321 101.361 225.321C101.82 225.321 102.267 225.467 102.639 225.737C103.011 226.007 103.287 226.389 103.429 226.826L104.605 230.451C104.703 230.753 104.893 231.016 105.149 231.202C105.405 231.388 105.714 231.488 106.03 231.488H109.838C110.297 231.488 110.744 231.633 111.116 231.903C111.487 232.174 111.764 232.555 111.906 232.992C112.048 233.429 112.048 233.9 111.906 234.338C111.764 234.775 111.487 235.156 111.116 235.426L108.035 237.667C107.779 237.853 107.588 238.115 107.49 238.417C107.393 238.718 107.393 239.043 107.491 239.344L108.668 242.969C108.815 243.406 108.818 243.879 108.675 244.317C108.533 244.756 108.253 245.137 107.878 245.403C107.508 245.677 107.06 245.825 106.6 245.827Z" fill="#1D72F2"/>
<path d="M137.815 245.827C137.355 245.825 136.907 245.677 136.537 245.403L133.456 243.163C133.201 242.976 132.893 242.875 132.576 242.875C132.26 242.875 131.951 242.976 131.696 243.163L128.615 245.403C128.244 245.674 127.796 245.819 127.337 245.819C126.878 245.819 126.431 245.674 126.059 245.403C125.688 245.133 125.411 244.752 125.269 244.315C125.127 243.878 125.127 243.407 125.269 242.969L126.446 239.344C126.544 239.043 126.544 238.718 126.446 238.417C126.349 238.115 126.158 237.853 125.902 237.667L122.821 235.426C122.45 235.156 122.173 234.775 122.031 234.338C121.889 233.9 121.889 233.429 122.031 232.992C122.173 232.555 122.45 232.174 122.821 231.903C123.193 231.633 123.64 231.488 124.099 231.488H127.907C128.223 231.488 128.532 231.388 128.788 231.202C129.044 231.016 129.234 230.753 129.331 230.451L130.508 226.826C130.65 226.389 130.926 226.007 131.298 225.737C131.669 225.467 132.117 225.321 132.576 225.321C133.035 225.321 133.483 225.467 133.854 225.737C134.226 226.007 134.502 226.389 134.644 226.826L135.821 230.451C135.918 230.753 136.108 231.016 136.364 231.202C136.621 231.388 136.929 231.488 137.245 231.488H141.053C141.512 231.488 141.96 231.633 142.331 231.903C142.703 232.174 142.979 232.555 143.121 232.992C143.263 233.429 143.263 233.9 143.121 234.338C142.979 234.775 142.703 235.156 142.331 235.426L139.251 237.667C138.994 237.853 138.804 238.115 138.706 238.417C138.608 238.718 138.608 239.043 138.707 239.344L139.883 242.969C140.03 243.406 140.033 243.879 139.891 244.317C139.748 244.756 139.469 245.137 139.093 245.403C138.723 245.677 138.275 245.825 137.815 245.827Z" fill="#1D72F2"/>
<path d="M169.03 245.827C168.57 245.825 168.123 245.677 167.752 245.403L164.672 243.163C164.416 242.976 164.108 242.876 163.791 242.876C163.475 242.876 163.167 242.976 162.911 243.163L159.831 245.403C159.459 245.674 159.012 245.819 158.553 245.819C158.093 245.819 157.646 245.674 157.274 245.403C156.903 245.133 156.626 244.752 156.484 244.315C156.343 243.878 156.343 243.407 156.484 242.969L157.661 239.344C157.759 239.043 157.76 238.718 157.662 238.417C157.564 238.115 157.373 237.853 157.117 237.667L154.036 235.426C153.665 235.156 153.388 234.775 153.247 234.338C153.105 233.9 153.105 233.429 153.247 232.992C153.388 232.555 153.665 232.174 154.037 231.903C154.408 231.633 154.855 231.488 155.315 231.488H159.122C159.439 231.488 159.747 231.388 160.003 231.202C160.259 231.016 160.449 230.753 160.547 230.451L161.723 226.826C161.865 226.389 162.142 226.007 162.513 225.737C162.885 225.467 163.332 225.321 163.791 225.321C164.251 225.321 164.698 225.467 165.07 225.737C165.441 226.007 165.718 226.389 165.86 226.826L167.036 230.451C167.134 230.753 167.324 231.016 167.58 231.202C167.836 231.388 168.144 231.488 168.461 231.488H172.268C172.728 231.488 173.175 231.633 173.546 231.903C173.918 232.174 174.194 232.555 174.336 232.992C174.478 233.429 174.478 233.9 174.336 234.338C174.195 234.775 173.918 235.156 173.547 235.426L170.466 237.667C170.21 237.853 170.019 238.115 169.921 238.417C169.823 238.718 169.824 239.043 169.922 239.344L171.099 242.969C171.246 243.406 171.248 243.879 171.106 244.317C170.964 244.756 170.684 245.137 170.309 245.403C169.938 245.677 169.491 245.825 169.03 245.827Z" fill="#1D72F2"/>
<path d="M200.246 245.827C199.786 245.825 199.338 245.677 198.968 245.403L195.887 243.163C195.632 242.976 195.323 242.875 195.007 242.875C194.69 242.875 194.382 242.976 194.127 243.163L191.046 245.403C190.675 245.674 190.227 245.819 189.768 245.819C189.309 245.819 188.861 245.674 188.49 245.403C188.118 245.133 187.842 244.752 187.7 244.315C187.558 243.878 187.558 243.407 187.7 242.969L188.876 239.344C188.975 239.043 188.975 238.718 188.877 238.417C188.779 238.115 188.589 237.853 188.332 237.667L185.252 235.426C184.88 235.156 184.604 234.775 184.462 234.338C184.32 233.9 184.32 233.429 184.462 232.992C184.604 232.555 184.88 232.174 185.252 231.903C185.623 231.633 186.071 231.488 186.53 231.488H190.337C190.654 231.488 190.962 231.388 191.218 231.202C191.474 231.016 191.665 230.753 191.762 230.451L192.939 226.826C193.08 226.389 193.357 226.007 193.729 225.737C194.1 225.467 194.547 225.321 195.007 225.321C195.466 225.321 195.913 225.467 196.285 225.737C196.657 226.007 196.933 226.389 197.075 226.826L198.252 230.451C198.349 230.753 198.539 231.016 198.795 231.202C199.051 231.388 199.36 231.488 199.676 231.488H203.484C203.943 231.488 204.39 231.633 204.762 231.903C205.133 232.174 205.41 232.555 205.552 232.992C205.694 233.429 205.694 233.9 205.552 234.338C205.41 234.775 205.133 235.156 204.762 235.426L201.681 237.667C201.425 237.853 201.234 238.115 201.136 238.417C201.039 238.718 201.039 239.043 201.137 239.344L202.314 242.969C202.461 243.406 202.464 243.879 202.321 244.317C202.179 244.756 201.9 245.137 201.524 245.403C201.154 245.677 200.706 245.825 200.246 245.827Z" fill="#1D72F2"/>
<path d="M220.983 246.042C220.478 246.04 219.986 245.877 219.579 245.577C219.167 245.284 218.86 244.865 218.703 244.384C218.547 243.902 218.55 243.383 218.711 242.903L219.888 239.277C219.973 239.019 219.973 238.741 219.889 238.483C219.805 238.224 219.642 238 219.422 237.84L216.341 235.599C215.933 235.303 215.629 234.884 215.474 234.404C215.318 233.923 215.318 233.406 215.474 232.926C215.63 232.445 215.933 232.027 216.341 231.73C216.749 231.433 217.241 231.273 217.745 231.273H221.553C221.824 231.274 222.089 231.188 222.308 231.028C222.527 230.869 222.691 230.643 222.774 230.385L223.951 226.759C224.107 226.279 224.41 225.861 224.818 225.564C225.226 225.267 225.718 225.107 226.222 225.107C226.727 225.107 227.218 225.267 227.626 225.564C228.034 225.861 228.338 226.279 228.494 226.759L229.671 230.385C229.754 230.643 229.917 230.869 230.137 231.028C230.356 231.188 230.62 231.274 230.892 231.273H234.699C235.204 231.273 235.695 231.433 236.103 231.73C236.511 232.027 236.815 232.445 236.971 232.926C237.127 233.406 237.127 233.923 236.971 234.404C236.815 234.884 236.511 235.303 236.103 235.599L233.023 237.84C232.803 237.999 232.639 238.224 232.556 238.483C232.472 238.741 232.472 239.019 232.556 239.277L233.733 242.903C233.889 243.383 233.889 243.901 233.733 244.381C233.577 244.861 233.273 245.28 232.865 245.577C232.457 245.873 231.966 246.033 231.461 246.033C230.957 246.033 230.465 245.873 230.057 245.577L226.977 243.336C226.758 243.176 226.494 243.09 226.222 243.09C225.951 243.09 225.687 243.176 225.468 243.336L222.387 245.577C221.98 245.877 221.489 246.04 220.983 246.042ZM226.222 241.983C226.727 241.983 227.218 242.143 227.626 242.441L230.707 244.682C230.926 244.841 231.19 244.927 231.461 244.927C231.732 244.927 231.996 244.841 232.216 244.682C232.435 244.522 232.598 244.297 232.682 244.039C232.766 243.781 232.766 243.503 232.682 243.245L231.506 239.619C231.349 239.139 231.348 238.621 231.504 238.141C231.66 237.66 231.965 237.242 232.373 236.945L235.454 234.704C235.673 234.545 235.836 234.32 235.92 234.062C236.004 233.804 236.004 233.526 235.92 233.267C235.836 233.009 235.673 232.784 235.454 232.625C235.234 232.465 234.97 232.379 234.699 232.379H230.891C230.387 232.38 229.895 232.221 229.487 231.924C229.078 231.627 228.775 231.208 228.62 230.727L227.443 227.101C227.359 226.843 227.196 226.618 226.977 226.459C226.757 226.299 226.493 226.213 226.222 226.213C225.951 226.213 225.687 226.299 225.468 226.459C225.248 226.618 225.085 226.843 225.001 227.101L223.825 230.727C223.67 231.208 223.366 231.627 222.958 231.924C222.55 232.221 222.058 232.38 221.553 232.379H217.745C217.474 232.379 217.21 232.465 216.991 232.625C216.771 232.784 216.608 233.009 216.524 233.267C216.441 233.526 216.441 233.804 216.524 234.062C216.608 234.32 216.771 234.545 216.991 234.704L220.071 236.945C220.48 237.242 220.784 237.66 220.94 238.141C221.096 238.621 221.096 239.139 220.939 239.619L219.762 243.245C219.678 243.503 219.678 243.781 219.762 244.039C219.846 244.297 220.009 244.522 220.229 244.682C220.448 244.841 220.712 244.927 220.983 244.927C221.254 244.927 221.518 244.841 221.738 244.682L224.818 242.441C225.226 242.143 225.718 241.983 226.222 241.983Z" fill="#2C2C2C"/>
<path d="M30.3821 154.86C29.4298 154.86 28.5165 155.239 27.8432 155.913C27.1698 156.587 26.7915 157.502 26.7915 158.455C26.7915 159.409 27.1698 160.323 27.8432 160.997C28.5165 161.672 29.4298 162.05 30.3821 162.05H212.122C213.075 162.05 213.988 161.672 214.661 160.997C215.335 160.323 215.713 159.409 215.713 158.455C215.713 157.502 215.335 156.587 214.661 155.913C213.988 155.239 213.075 154.86 212.122 154.86H30.3821Z" fill="#616161"/>
<path d="M30.3821 173.665C29.4298 173.665 28.5165 174.044 27.8432 174.718C27.1698 175.392 26.7915 176.307 26.7915 177.26C26.7915 178.213 27.1698 179.128 27.8432 179.802C28.5165 180.476 29.4298 180.855 30.3821 180.855H212.122C213.075 180.855 213.988 180.476 214.661 179.802C215.335 179.128 215.713 178.213 215.713 177.26C215.713 176.307 215.335 175.392 214.661 174.718C213.988 174.044 213.075 173.665 212.122 173.665H30.3821Z" fill="#616161"/>
<path d="M30.3821 192.469C29.4298 192.469 28.5165 192.848 27.8432 193.522C27.1698 194.196 26.7915 195.111 26.7915 196.064C26.7915 197.018 27.1698 197.932 27.8432 198.606C28.5165 199.28 29.4298 199.659 30.3821 199.659H212.122C213.075 199.659 213.988 199.28 214.661 198.606C215.335 197.932 215.713 197.018 215.713 196.064C215.713 195.111 215.335 194.196 214.661 193.522C213.988 192.848 213.075 192.469 212.122 192.469H30.3821Z" fill="#616161"/>
<path d="M30.3821 154.86C29.4298 154.86 28.5165 155.239 27.8432 155.913C27.1698 156.587 26.7915 157.502 26.7915 158.455C26.7915 159.409 27.1698 160.323 27.8432 160.997C28.5165 161.672 29.4298 162.05 30.3821 162.05H212.122C213.075 162.05 213.988 161.672 214.661 160.997C215.335 160.323 215.713 159.409 215.713 158.455C215.713 157.502 215.335 156.587 214.661 155.913C213.988 155.239 213.075 154.86 212.122 154.86H30.3821Z" fill="#616161"/>
<path d="M30.3821 173.665C29.4298 173.665 28.5165 174.044 27.8432 174.718C27.1698 175.392 26.7915 176.307 26.7915 177.26C26.7915 178.213 27.1698 179.128 27.8432 179.802C28.5165 180.476 29.4298 180.855 30.3821 180.855H212.122C213.075 180.855 213.988 180.476 214.661 179.802C215.335 179.128 215.713 178.213 215.713 177.26C215.713 176.307 215.335 175.392 214.661 174.718C213.988 174.044 213.075 173.665 212.122 173.665H30.3821Z" fill="#616161"/>
<path d="M30.3821 192.469C29.4298 192.469 28.5165 192.848 27.8432 193.522C27.1698 194.196 26.7915 195.111 26.7915 196.064C26.7915 197.018 27.1698 197.932 27.8432 198.606C28.5165 199.28 29.4298 199.659 30.3821 199.659H212.122C213.075 199.659 213.988 199.28 214.661 198.606C215.335 197.932 215.713 197.018 215.713 196.064C215.713 195.111 215.335 194.196 214.661 193.522C213.988 192.848 213.075 192.469 212.122 192.469H30.3821Z" fill="#616161"/>
<path d="M238.638 77.9832H3.86681C2.84162 77.9821 1.85875 77.5738 1.13383 76.848C0.408914 76.1222 0.00115067 75.1382 0 74.1117V3.87151C0.00115067 2.84507 0.408914 1.86101 1.13383 1.13521C1.85875 0.409411 2.84162 0.00115206 3.86681 0H238.638C239.663 0.0011506 240.646 0.409411 241.371 1.13521C242.095 1.86101 242.503 2.84507 242.504 3.87151V74.1117C242.503 75.1382 242.095 76.1222 241.371 76.848C240.646 77.5738 239.663 77.9821 238.638 77.9832ZM3.86681 1.10615C3.13454 1.10699 2.43251 1.39861 1.91472 1.91704C1.39693 2.43546 1.10565 3.13835 1.1048 3.87151V74.1117C1.10565 74.8449 1.39693 75.5478 1.91472 76.0662C2.43251 76.5846 3.13454 76.8762 3.86681 76.8771H238.638C239.37 76.8763 240.072 76.5846 240.59 76.0662C241.107 75.5478 241.399 74.8449 241.4 74.1117V3.87151C241.399 3.13835 241.107 2.43545 240.59 1.91703C240.072 1.3986 239.37 1.10698 238.638 1.10615H3.86681Z" fill="#2C2C2C"/>
<path d="M106.6 107.559C106.14 107.557 105.692 107.409 105.322 107.135L102.241 104.895C101.986 104.708 101.677 104.607 101.361 104.607C101.044 104.607 100.736 104.708 100.48 104.895L97.4 107.135C97.0285 107.406 96.5811 107.551 96.1219 107.551C95.6627 107.551 95.2152 107.406 94.8437 107.135C94.4722 106.865 94.1956 106.484 94.0537 106.047C93.9117 105.61 93.9117 105.139 94.0535 104.701L95.2302 101.076C95.3286 100.775 95.3289 100.45 95.2311 100.149C95.1333 99.8472 94.9425 99.5847 94.6861 99.3988L91.6057 97.1581C91.2342 96.8879 90.9576 96.5068 90.8157 96.0695C90.6738 95.6323 90.6738 95.1613 90.8157 94.724C90.9576 94.2867 91.2341 93.9056 91.6057 93.6354C91.9772 93.3651 92.4246 93.2196 92.8838 93.2196H96.6915C97.008 93.2202 97.3164 93.1201 97.5724 92.9339C97.8284 92.7477 98.0188 92.4849 98.116 92.1834L99.2925 88.5578C99.4344 88.1205 99.7109 87.7394 100.082 87.4691C100.454 87.1988 100.901 87.0532 101.361 87.0532C101.82 87.0532 102.267 87.1988 102.639 87.4691C103.011 87.7394 103.287 88.1205 103.429 88.5578L104.605 92.1834C104.703 92.4849 104.893 92.7477 105.149 92.9339C105.405 93.1201 105.714 93.2201 106.03 93.2196H109.838C110.297 93.2196 110.744 93.3652 111.116 93.6354C111.487 93.9057 111.764 94.2867 111.906 94.724C112.048 95.1613 112.048 95.6323 111.906 96.0695C111.764 96.5068 111.487 96.8879 111.116 97.1581L108.035 99.3988C107.779 99.5847 107.588 99.8472 107.49 100.149C107.393 100.45 107.393 100.775 107.491 101.076L108.668 104.701C108.815 105.138 108.818 105.611 108.675 106.049C108.533 106.488 108.253 106.869 107.878 107.135C107.508 107.409 107.06 107.557 106.6 107.559Z" fill="#1D72F2"/>
<path d="M137.815 107.559C137.355 107.557 136.907 107.409 136.537 107.135L133.456 104.895C133.201 104.708 132.893 104.607 132.576 104.607C132.26 104.607 131.951 104.708 131.696 104.895L128.615 107.135C128.244 107.406 127.796 107.551 127.337 107.551C126.878 107.551 126.431 107.406 126.059 107.135C125.688 106.865 125.411 106.484 125.269 106.047C125.127 105.61 125.127 105.139 125.269 104.701L126.446 101.076C126.544 100.775 126.544 100.45 126.446 100.149C126.349 99.8472 126.158 99.5847 125.902 99.3988L122.821 97.1581C122.45 96.8879 122.173 96.5068 122.031 96.0695C121.889 95.6322 121.889 95.1612 122.031 94.7239C122.173 94.2867 122.45 93.9056 122.821 93.6354C123.193 93.3651 123.64 93.2196 124.099 93.2196H127.907C128.223 93.2201 128.532 93.1201 128.788 92.9339C129.044 92.7477 129.234 92.4849 129.331 92.1834L130.508 88.5578C130.65 88.1205 130.926 87.7394 131.298 87.4691C131.669 87.1988 132.117 87.0532 132.576 87.0532C133.035 87.0532 133.483 87.1988 133.854 87.4691C134.226 87.7394 134.502 88.1205 134.644 88.5578L135.821 92.1834C135.918 92.4849 136.108 92.7477 136.364 92.9339C136.621 93.1201 136.929 93.2202 137.245 93.2196H141.053C141.512 93.2196 141.96 93.3651 142.331 93.6354C142.703 93.9056 142.979 94.2867 143.121 94.7239C143.263 95.1612 143.263 95.6322 143.121 96.0695C142.979 96.5068 142.703 96.8879 142.331 97.1581L139.251 99.3988C138.994 99.5846 138.804 99.8471 138.706 100.149C138.608 100.45 138.608 100.775 138.707 101.076L139.883 104.701C140.03 105.138 140.033 105.611 139.891 106.049C139.748 106.488 139.469 106.869 139.093 107.135C138.723 107.409 138.275 107.557 137.815 107.559Z" fill="#1D72F2"/>
<path d="M169.03 107.559C168.57 107.557 168.123 107.409 167.752 107.135L164.672 104.895C164.416 104.708 164.108 104.608 163.791 104.608C163.475 104.608 163.167 104.708 162.911 104.895L159.831 107.135C159.459 107.406 159.012 107.551 158.553 107.551C158.093 107.551 157.646 107.406 157.274 107.135C156.903 106.865 156.626 106.484 156.484 106.047C156.343 105.61 156.343 105.139 156.484 104.701L157.661 101.076C157.759 100.775 157.76 100.45 157.662 100.149C157.564 99.8472 157.373 99.5847 157.117 99.3988L154.036 97.1581C153.665 96.8879 153.388 96.5068 153.247 96.0695C153.105 95.6322 153.105 95.1612 153.247 94.7239C153.388 94.2867 153.665 93.9056 154.037 93.6354C154.408 93.3651 154.855 93.2196 155.315 93.2196H159.122C159.439 93.2202 159.747 93.1201 160.003 92.9339C160.259 92.7477 160.449 92.4849 160.547 92.1834L161.723 88.5578C161.865 88.1205 162.142 87.7394 162.513 87.4691C162.885 87.1988 163.332 87.0532 163.791 87.0532C164.251 87.0532 164.698 87.1988 165.07 87.4691C165.441 87.7394 165.718 88.1205 165.86 88.5578L167.036 92.1834C167.134 92.4849 167.324 92.7477 167.58 92.9339C167.836 93.1201 168.144 93.2201 168.461 93.2196H172.268C172.728 93.2196 173.175 93.3651 173.546 93.6354C173.918 93.9056 174.194 94.2867 174.336 94.7239C174.478 95.1612 174.478 95.6322 174.336 96.0695C174.195 96.5068 173.918 96.8879 173.547 97.1581L170.466 99.3988C170.21 99.5847 170.019 99.8472 169.921 100.149C169.823 100.45 169.824 100.775 169.922 101.076L171.099 104.701C171.246 105.138 171.248 105.611 171.106 106.049C170.964 106.488 170.684 106.868 170.309 107.135C169.938 107.409 169.491 107.557 169.03 107.559Z" fill="#1D72F2"/>
<path d="M220.983 107.774C220.478 107.772 219.986 107.609 219.579 107.309C219.167 107.016 218.86 106.597 218.703 106.116C218.547 105.634 218.55 105.115 218.711 104.635L219.888 101.009C219.973 100.751 219.973 100.473 219.889 100.215C219.805 99.9564 219.642 99.7315 219.422 99.5723L216.341 97.3313C215.933 97.0345 215.629 96.6159 215.474 96.1356C215.318 95.6552 215.318 95.1378 215.474 94.6575C215.63 94.1772 215.933 93.7586 216.341 93.4617C216.749 93.1649 217.241 93.005 217.745 93.0051H221.553C221.824 93.0056 222.089 92.9198 222.308 92.7602C222.527 92.6005 222.691 92.3753 222.774 92.1168L223.951 88.4913C224.107 88.011 224.41 87.5924 224.818 87.2956C225.226 86.9987 225.718 86.8389 226.222 86.8389C226.727 86.8389 227.218 86.9987 227.626 87.2956C228.034 87.5924 228.338 88.011 228.494 88.4913L229.671 92.1168C229.754 92.3753 229.917 92.6005 230.137 92.7602C230.356 92.9198 230.62 93.0056 230.892 93.0051H234.699C235.204 93.0051 235.695 93.165 236.103 93.4618C236.511 93.7587 236.815 94.1772 236.971 94.6575C237.127 95.1379 237.127 95.6552 236.971 96.1356C236.815 96.6159 236.511 97.0345 236.103 97.3313L233.023 99.5723C232.803 99.7314 232.639 99.9563 232.556 100.215C232.472 100.473 232.472 100.751 232.556 101.009L233.733 104.635C233.889 105.115 233.889 105.632 233.733 106.113C233.577 106.593 233.273 107.012 232.865 107.309C232.457 107.605 231.966 107.765 231.461 107.765C230.957 107.765 230.465 107.605 230.057 107.309L226.977 105.068C226.758 104.908 226.494 104.822 226.222 104.822C225.951 104.822 225.687 104.908 225.468 105.068L222.387 107.309C221.98 107.609 221.489 107.772 220.983 107.774ZM226.222 103.715C226.727 103.715 227.218 103.875 227.626 104.173L230.707 106.414C230.926 106.573 231.19 106.659 231.461 106.659C231.732 106.659 231.996 106.573 232.216 106.414C232.435 106.254 232.598 106.029 232.682 105.771C232.766 105.513 232.766 105.235 232.682 104.977L231.506 101.351C231.349 100.871 231.348 100.353 231.504 99.8726C231.66 99.3921 231.965 98.9735 232.373 98.6773L235.454 96.4364C235.673 96.2769 235.836 96.0519 235.92 95.7937C236.004 95.5356 236.004 95.2575 235.92 94.9994C235.836 94.7412 235.673 94.5163 235.454 94.3567C235.234 94.1972 234.97 94.1112 234.699 94.1112H230.891C230.387 94.1122 229.895 93.9526 229.487 93.6557C229.078 93.3587 228.775 92.9396 228.62 92.4588L227.443 88.8333C227.359 88.5751 227.196 88.3501 226.977 88.1905C226.757 88.031 226.493 87.945 226.222 87.945C225.951 87.945 225.687 88.031 225.468 88.1905C225.248 88.3501 225.085 88.5751 225.001 88.8333L223.825 92.4588C223.67 92.9396 223.366 93.3587 222.958 93.6557C222.55 93.9527 222.058 94.1122 221.553 94.1112H217.745C217.474 94.1112 217.21 94.1971 216.991 94.3567C216.771 94.5162 216.608 94.7412 216.524 94.9993C216.441 95.2575 216.441 95.5355 216.524 95.7937C216.608 96.0519 216.771 96.2768 216.991 96.4364L220.071 98.6773C220.48 98.9736 220.784 99.3921 220.94 99.8727C221.096 100.353 221.096 100.871 220.939 101.351L219.762 104.977C219.678 105.235 219.678 105.513 219.762 105.771C219.846 106.029 220.009 106.254 220.229 106.414C220.448 106.573 220.712 106.659 220.983 106.659C221.254 106.659 221.518 106.573 221.738 106.414L224.818 104.173C225.226 103.875 225.718 103.715 226.222 103.715Z" fill="#2C2C2C"/>
<path d="M189.496 107.685C188.991 107.683 188.499 107.52 188.093 107.22C187.68 106.927 187.373 106.508 187.217 106.027C187.06 105.545 187.063 105.026 187.225 104.546L188.401 100.92C188.486 100.662 188.486 100.384 188.402 100.126C188.318 99.8675 188.155 99.6426 187.935 99.4834L184.854 97.2424C184.446 96.9456 184.143 96.527 183.987 96.0467C183.831 95.5664 183.831 95.0489 183.987 94.5686C184.143 94.0883 184.446 93.6697 184.854 93.3729C185.263 93.076 185.754 92.9162 186.259 92.9162H190.066C190.337 92.9167 190.602 92.8309 190.821 92.6713C191.041 92.5117 191.204 92.2864 191.287 92.028L192.464 88.4025C192.62 87.9222 192.923 87.5036 193.331 87.2067C193.74 86.9099 194.231 86.75 194.735 86.75C195.24 86.75 195.731 86.9099 196.139 87.2067C196.548 87.5036 196.851 87.9222 197.007 88.4025L198.184 92.028C198.267 92.2864 198.43 92.5116 198.65 92.6713C198.869 92.8309 199.133 92.9167 199.405 92.9162H203.212C203.717 92.9162 204.208 93.0761 204.616 93.3729C205.024 93.6698 205.328 94.0884 205.484 94.5687C205.64 95.049 205.64 95.5664 205.484 96.0467C205.328 96.527 205.024 96.9456 204.616 97.2425L201.536 99.4834C201.316 99.6425 201.153 99.8675 201.069 100.126C200.985 100.384 200.985 100.662 201.069 100.92L202.246 104.546C202.402 105.026 202.402 105.544 202.246 106.024C202.09 106.504 201.786 106.923 201.378 107.22C200.97 107.516 200.479 107.676 199.974 107.676C199.47 107.676 198.978 107.516 198.57 107.22L195.49 104.979C195.271 104.819 195.007 104.733 194.735 104.733C194.464 104.733 194.2 104.819 193.981 104.979L190.9 107.22C190.494 107.52 190.002 107.683 189.496 107.685ZM194.735 103.626C195.24 103.626 195.731 103.786 196.139 104.084L199.22 106.325C199.439 106.484 199.703 106.57 199.974 106.57C200.245 106.57 200.51 106.484 200.729 106.325C200.948 106.165 201.112 105.94 201.195 105.682C201.279 105.424 201.279 105.146 201.195 104.888L200.019 101.262C199.862 100.782 199.861 100.264 200.017 99.7837C200.173 99.3032 200.478 98.8846 200.886 98.5884L203.967 96.3475C204.186 96.188 204.349 95.963 204.433 95.7048C204.517 95.4467 204.517 95.1686 204.433 94.9105C204.349 94.6523 204.186 94.4274 203.967 94.2678C203.747 94.1083 203.483 94.0223 203.212 94.0223H199.405C198.9 94.0233 198.408 93.8637 198 93.5668C197.592 93.2698 197.288 92.8507 197.133 92.3699L195.956 88.7444C195.873 88.4862 195.709 88.2612 195.49 88.1016C195.271 87.9421 195.006 87.8561 194.735 87.8561C194.464 87.8561 194.2 87.9421 193.981 88.1016C193.761 88.2612 193.598 88.4862 193.514 88.7444L192.338 92.3699C192.183 92.8507 191.879 93.2698 191.471 93.5668C191.063 93.8637 190.571 94.0233 190.066 94.0223H186.259C185.987 94.0223 185.723 94.1082 185.504 94.2678C185.285 94.4273 185.121 94.6523 185.038 94.9104C184.954 95.1686 184.954 95.4466 185.037 95.7048C185.121 95.963 185.284 96.1879 185.504 96.3475L188.584 98.5884C188.993 98.8847 189.297 99.3032 189.453 99.7838C189.609 100.264 189.609 100.782 189.452 101.262L188.275 104.888C188.192 105.146 188.192 105.424 188.275 105.682C188.359 105.94 188.522 106.165 188.742 106.325C188.961 106.484 189.225 106.57 189.496 106.57C189.767 106.57 190.032 106.484 190.251 106.325L193.331 104.084C193.739 103.786 194.231 103.626 194.735 103.626Z" fill="#2C2C2C"/>
<path d="M30.3821 16.5923C29.4298 16.5923 28.5165 16.971 27.8432 17.6452C27.1698 18.3194 26.7915 19.2338 26.7915 20.1873C26.7915 21.1407 27.1698 22.0551 27.8432 22.7293C28.5165 23.4035 29.4298 23.7822 30.3821 23.7822H212.122C213.075 23.7822 213.988 23.4035 214.661 22.7293C215.335 22.0551 215.713 21.1407 215.713 20.1873C215.713 19.2338 215.335 18.3194 214.661 17.6452C213.988 16.971 213.075 16.5923 212.122 16.5923H30.3821Z" fill="#616161"/>
<path d="M30.3821 35.3965C29.4298 35.3965 28.5165 35.7752 27.8432 36.4494C27.1698 37.1236 26.7915 38.038 26.7915 38.9915C26.7915 39.9449 27.1698 40.8593 27.8432 41.5335C28.5165 42.2077 29.4298 42.5864 30.3821 42.5864H212.122C213.075 42.5864 213.988 42.2077 214.661 41.5335C215.335 40.8593 215.713 39.9449 215.713 38.9915C215.713 38.038 215.335 37.1236 214.661 36.4494C213.988 35.7752 213.075 35.3965 212.122 35.3965H30.3821Z" fill="#616161"/>
<path d="M30.3821 54.2012C29.4298 54.2012 28.5165 54.5799 27.8432 55.2541C27.1698 55.9283 26.7915 56.8427 26.7915 57.7961C26.7915 58.7496 27.1698 59.664 27.8432 60.3382C28.5165 61.0124 29.4298 61.3911 30.3821 61.3911H212.122C213.075 61.3911 213.988 61.0124 214.661 60.3382C215.335 59.664 215.713 58.7496 215.713 57.7961C215.713 56.8427 215.335 55.9283 214.661 55.2541C213.988 54.5799 213.075 54.2012 212.122 54.2012H30.3821Z" fill="#616161"/>
<path d="M30.3821 16.5923C29.4298 16.5923 28.5165 16.971 27.8432 17.6452C27.1698 18.3194 26.7915 19.2338 26.7915 20.1873C26.7915 21.1407 27.1698 22.0551 27.8432 22.7293C28.5165 23.4035 29.4298 23.7822 30.3821 23.7822H212.122C213.075 23.7822 213.988 23.4035 214.661 22.7293C215.335 22.0551 215.713 21.1407 215.713 20.1873C215.713 19.2338 215.335 18.3194 214.661 17.6452C213.988 16.971 213.075 16.5923 212.122 16.5923H30.3821Z" fill="#616161"/>
<path d="M30.3821 35.3965C29.4298 35.3965 28.5165 35.7752 27.8432 36.4494C27.1698 37.1236 26.7915 38.038 26.7915 38.9915C26.7915 39.9449 27.1698 40.8593 27.8432 41.5335C28.5165 42.2077 29.4298 42.5864 30.3821 42.5864H212.122C213.075 42.5864 213.988 42.2077 214.661 41.5335C215.335 40.8593 215.713 39.9449 215.713 38.9915C215.713 38.038 215.335 37.1236 214.661 36.4494C213.988 35.7752 213.075 35.3965 212.122 35.3965H30.3821Z" fill="#616161"/>
<path d="M30.3821 54.2012C29.4298 54.2012 28.5165 54.5799 27.8432 55.2541C27.1698 55.9283 26.7915 56.8427 26.7915 57.7961C26.7915 58.7496 27.1698 59.664 27.8432 60.3382C28.5165 61.0124 29.4298 61.3911 30.3821 61.3911H212.122C213.075 61.3911 213.988 61.0124 214.661 60.3382C215.335 59.664 215.713 58.7496 215.713 57.7961C215.713 56.8427 215.335 55.9283 214.661 55.2541C213.988 54.5799 213.075 54.2012 212.122 54.2012H30.3821Z" fill="#616161"/>
</svg>
