<svg width="379" height="369" viewBox="0 0 379 369" fill="none" xmlns="http://www.w3.org/2000/svg">
<g clip-path="url(#clip0_875_4113)">
<path d="M241.732 82.7163H221.567V254.495C221.567 257.19 221.035 259.859 220.003 262.349C218.971 264.839 217.458 267.101 215.55 269.007C213.643 270.913 211.379 272.424 208.886 273.456C206.394 274.487 203.723 275.018 201.026 275.018H46.8508V275.214C46.8508 277.909 47.3821 280.578 48.4144 283.068C49.4466 285.558 50.9596 287.821 52.867 289.726C54.7744 291.632 57.0388 293.144 59.5309 294.175C62.023 295.207 64.694 295.738 67.3915 295.738H241.732C244.43 295.738 247.101 295.207 249.593 294.175C252.085 293.144 254.349 291.632 256.257 289.726C258.164 287.821 259.677 285.558 260.709 283.068C261.742 280.578 262.273 277.909 262.273 275.214V103.24C262.273 97.7965 260.109 92.5763 256.257 88.7274C252.404 84.8786 247.18 82.7163 241.732 82.7163Z" fill="#F2F2F2"/>
<path d="M337.327 355.699C337.684 355.715 338.037 355.621 338.339 355.43C338.641 355.239 338.877 354.96 339.015 354.631C339.153 354.301 339.186 353.938 339.11 353.589C339.034 353.24 338.852 352.923 338.59 352.68L338.471 352.206C338.486 352.168 338.502 352.13 338.518 352.092C338.878 351.243 339.48 350.52 340.25 350.012C341.02 349.504 341.923 349.235 342.846 349.239C343.768 349.242 344.669 349.518 345.435 350.031C346.201 350.545 346.799 351.273 347.152 352.124C348.564 355.522 350.362 358.926 350.805 362.519C351 364.107 350.917 365.717 350.562 367.277C353.878 360.049 355.601 352.192 355.612 344.24C355.612 342.244 355.501 340.25 355.279 338.267C355.096 336.641 354.841 335.027 354.515 333.425C352.738 324.729 348.921 316.579 343.379 309.643C340.696 308.181 338.527 305.932 337.163 303.2C336.669 302.218 336.319 301.169 336.126 300.087C336.429 300.127 337.267 295.522 337.039 295.24C337.46 294.6 338.215 294.282 338.676 293.659C340.966 290.556 344.122 291.097 345.77 295.314C349.289 297.089 349.323 300.032 347.164 302.863C345.79 304.664 345.601 307.101 344.395 309.029C344.519 309.187 344.648 309.341 344.772 309.5C347.04 312.412 349.015 315.54 350.672 318.838C350.269 315.143 350.75 311.406 352.075 307.933C353.417 304.697 355.934 301.971 358.15 299.173C358.736 298.422 359.532 297.861 360.438 297.561C361.343 297.262 362.317 297.237 363.236 297.49C364.155 297.743 364.979 298.263 365.603 298.984C366.226 299.705 366.622 300.594 366.74 301.54C366.745 301.581 366.749 301.622 366.753 301.663C366.424 301.849 366.102 302.046 365.787 302.254C365.391 302.519 365.084 302.896 364.906 303.338C364.729 303.78 364.689 304.265 364.792 304.729C364.895 305.194 365.136 305.617 365.484 305.942C365.831 306.268 366.269 306.48 366.74 306.553L366.788 306.56C366.671 307.746 366.463 308.921 366.168 310.075C369.011 321.06 362.873 325.062 354.108 325.241C353.915 325.34 353.726 325.44 353.533 325.534C355.197 330.246 356.241 335.154 356.638 340.136C356.863 343.074 356.85 346.027 356.599 348.963L356.614 348.859C357.249 345.594 358.992 342.647 361.549 340.517C365.348 337.4 370.714 336.252 374.812 333.746C375.248 333.466 375.754 333.317 376.272 333.316C376.789 333.315 377.296 333.461 377.733 333.738C378.17 334.016 378.519 334.412 378.737 334.881C378.956 335.349 379.036 335.871 378.968 336.383L378.952 336.493C378.341 336.741 377.746 337.028 377.171 337.35C376.842 337.536 376.519 337.733 376.204 337.941C375.808 338.205 375.501 338.583 375.324 339.025C375.146 339.466 375.106 339.951 375.209 340.416C375.312 340.881 375.553 341.303 375.901 341.629C376.249 341.954 376.686 342.167 377.157 342.24L377.205 342.247C377.24 342.252 377.27 342.257 377.305 342.262C376.261 344.752 374.796 347.044 372.974 349.038C371.196 358.628 363.561 359.538 355.393 356.745H355.388C354.492 360.636 353.194 364.423 351.514 368.046H337.674C337.624 367.892 337.579 367.733 337.535 367.58C338.816 367.66 340.102 367.584 341.364 367.352C340.338 366.093 339.311 364.824 338.284 363.565C338.261 363.541 338.239 363.517 338.219 363.491C337.698 362.846 337.173 362.207 336.652 361.563L336.651 361.562C336.624 359.587 336.851 357.616 337.327 355.699Z" fill="#F2F2F2"/>
<path d="M184.887 59.35C185.392 60.1149 186.058 60.761 186.838 61.2437C187.617 61.7263 188.493 62.0339 189.403 62.1453C190.314 62.2566 191.238 62.169 192.111 61.8886C192.984 61.6081 193.786 61.1414 194.461 60.5208L223.236 73.4919L228.784 66.4217L194.495 51.2654C193.365 50.2078 191.886 49.6011 190.338 49.5603C188.79 49.5195 187.281 50.0473 186.097 51.0439C184.913 52.0404 184.135 53.4364 183.912 54.9672C183.689 56.4981 184.036 58.0575 184.887 59.35Z" fill="#A0616A"/>
<path d="M308.376 67.4382L311.23 83.5967C311.363 84.3505 311.337 85.1238 311.153 85.867C310.97 86.6102 310.632 87.3068 310.163 87.912C309.694 88.5173 309.104 89.0179 308.43 89.3817C307.756 89.7455 307.013 89.9644 306.249 90.0244L257.756 93.8346L200.754 68.3452L207.562 55.4321L257.045 71.0886L308.376 67.4382Z" fill="#1D72F2"/>
<path d="M194.881 55.8579H20.5406C9.19636 55.8579 0 65.0465 0 76.3812V248.356C0 259.691 9.19636 268.879 20.5406 268.879H194.881C206.226 268.879 215.422 259.691 215.422 248.356V76.3812C215.422 65.0465 206.226 55.8579 194.881 55.8579Z" fill="#F2F2F2"/>
<path d="M20.5408 60.0781C18.3981 60.0781 16.2764 60.4998 14.2968 61.3191C12.3172 62.1384 10.5185 63.3392 9.00334 64.853C7.48821 66.3669 6.28634 68.1641 5.46637 70.142C4.64639 72.1199 4.22436 74.2399 4.22437 76.3807V248.356C4.22437 252.679 5.94341 256.826 9.00334 259.883C12.0633 262.941 16.2134 264.658 20.5408 264.658H131.809C142.235 264.658 152.558 262.607 162.19 258.62C171.822 254.634 180.573 248.791 187.945 241.426C195.317 234.06 201.165 225.316 205.155 215.692C209.144 206.068 211.198 195.754 211.198 185.337V76.3807C211.198 74.2399 210.776 72.1199 209.956 70.142C209.136 68.1641 207.934 66.3669 206.419 64.853C204.904 63.3392 203.105 62.1384 201.125 61.3191C199.146 60.4998 197.024 60.0781 194.881 60.0781H20.5408Z" fill="white"/>
<path d="M156.447 112.27H58.5936C57.6957 112.27 56.8345 111.913 56.1996 111.279C55.5647 110.645 55.208 109.784 55.208 108.887C55.208 107.99 55.5647 107.13 56.1996 106.495C56.8345 105.861 57.6957 105.504 58.5936 105.504H156.447C157.345 105.504 158.206 105.861 158.841 106.495C159.476 107.13 159.833 107.99 159.833 108.887C159.833 109.784 159.476 110.645 158.841 111.279C158.206 111.913 157.345 112.27 156.447 112.27Z" fill="#F2F2F2"/>
<path d="M156.447 184.405H58.5936C57.6957 184.405 56.8345 184.048 56.1996 183.414C55.5647 182.779 55.208 181.919 55.208 181.022C55.208 180.125 55.5647 179.264 56.1996 178.63C56.8345 177.996 57.6957 177.639 58.5936 177.639H156.447C157.345 177.639 158.206 177.996 158.841 178.63C159.476 179.264 159.833 180.125 159.833 181.022C159.833 181.919 159.476 182.779 158.841 183.414C158.206 184.048 157.345 184.405 156.447 184.405Z" fill="#F2F2F2"/>
<path d="M196.184 148.361H18.8572C17.9593 148.361 17.0982 148.005 16.4633 147.37C15.8284 146.736 15.4717 145.876 15.4717 144.978C15.4717 144.081 15.8284 143.221 16.4633 142.586C17.0982 141.952 17.9593 141.596 18.8572 141.596H196.184C197.082 141.596 197.943 141.952 198.578 142.586C199.213 143.221 199.569 144.081 199.569 144.978C199.569 145.876 199.213 146.736 198.578 147.37C197.943 148.005 197.082 148.361 196.184 148.361Z" fill="#F2F2F2"/>
<path d="M302.249 138.658L284.584 176.26L352.538 169.384L338.353 133.286L302.249 138.658Z" fill="#A0616A"/>
<path d="M318.048 354.782L311.605 354.727L308.753 329.318L318.261 329.398L318.048 354.782Z" fill="#A0616A"/>
<path d="M297.41 365.018C297.405 365.781 297.702 366.515 298.237 367.06C298.773 367.604 299.502 367.914 300.266 367.921L313.076 368.028L315.319 363.486L316.142 368.051L320.976 368.095L319.755 351.813L318.074 351.702L311.214 351.229L309.002 351.081L308.963 355.688L298.672 362.661C298.287 362.923 297.971 363.274 297.751 363.684C297.531 364.095 297.414 364.552 297.41 365.018Z" fill="#212121"/>
<path d="M246.747 354.81L240.604 352.867L245.349 327.742L254.416 330.61L246.747 354.81Z" fill="#A0616A"/>
<path d="M224.01 358.537C223.78 359.265 223.849 360.054 224.2 360.731C224.552 361.409 225.158 361.919 225.886 362.151L238.099 366.013L241.578 362.33L241.023 366.935L245.631 368.396L249.252 352.475L247.677 351.875L241.26 349.409L239.188 348.618L237.796 353.01L225.909 356.655C225.464 356.792 225.059 357.035 224.728 357.362C224.397 357.69 224.151 358.093 224.01 358.537Z" fill="#212121"/>
<path d="M349.444 158.81L287.657 170.121C287.657 170.121 277.746 177.528 280.397 180.181C283.048 182.834 283.46 182.423 281.718 184.163C279.976 185.903 276.21 188.23 276.173 189.752C276.136 191.275 248.486 259.573 248.486 259.573C248.486 259.573 251.559 258.038 249.255 260.34C246.95 262.643 246.95 264.545 246.95 264.545L236.198 337.08L253.66 338.107L270.76 271.978L308.9 210.2C308.9 210.2 312.685 265.29 312.843 268.955C313.002 272.619 315.306 268.014 313.002 272.619C310.698 277.223 309.162 274.154 310.698 277.223C312.234 280.293 305.165 342.785 305.165 342.785H321.104L355.289 213.256C355.289 213.256 367.452 176.225 349.444 158.81Z" fill="#212121"/>
<path d="M331.242 55.2023L306.492 52.6328L300.079 60.9508L292.609 64.9261C289.448 66.6084 286.839 69.1648 285.093 72.2898C283.348 75.4147 282.54 78.9758 282.767 82.5473L291.497 133.287C291.497 133.287 284.123 149.877 289.193 154.006C294.263 158.135 285.273 168.362 296.105 163.215C306.937 158.068 353.708 163.982 353.708 163.982L343.724 135.589L351.183 107.688L352.004 84.294C352.157 79.9224 350.859 75.6229 348.311 72.0657C345.763 68.5085 342.109 65.8934 337.918 64.6281L336.875 64.3132L331.242 55.2023Z" fill="#1D72F2"/>
<path d="M365.316 36.2443C365.478 43.2145 362.871 49.9638 359.125 55.8919C358.013 52.4311 356.012 49.2814 353.926 46.2788C354.977 52.7742 353.857 59.4349 350.738 65.23C350.628 65.3086 350.514 65.3816 350.397 65.4487C347.344 67.2835 343.474 68.0267 340.171 66.7015C346.995 59.3524 347.863 47.176 342.142 38.9328C340.523 36.5938 338.428 34.5251 337.425 31.8632C335.841 27.6161 337.363 22.9399 338.324 18.5118C339.222 14.3905 339.379 9.48625 336.612 6.46591C336.908 6.04382 337.31 5.70784 337.779 5.49239C338.247 5.27694 338.764 5.18978 339.277 5.23982C340.983 5.48062 342.225 6.96235 343.016 8.48844C343.807 10.0145 344.329 11.7059 345.431 13.024C347.473 15.4912 350.949 16.0745 353.879 17.3747C360.974 20.5323 365.146 28.4883 365.316 36.2443Z" fill="#212121"/>
<path d="M366.847 197.794C370.665 197.794 373.76 194.702 373.76 190.888C373.76 187.073 370.665 183.981 366.847 183.981C363.03 183.981 359.935 187.073 359.935 190.888C359.935 194.702 363.03 197.794 366.847 197.794Z" fill="#1D72F2"/>
<path d="M305.594 32.2588C306 30.841 303.205 39.5079 304.554 39.6643C310.695 40.3683 319.126 44.0332 323.404 45.743C323.597 45.7206 323.789 45.6983 323.976 45.6704C324.435 45.6201 324.883 45.5474 325.325 45.4636C335.285 43.5807 339.116 28.2931 339.116 28.1534C339.116 27.4662 337.465 8.59027 334.864 8.31094C334.181 8.23688 333.495 8.19958 332.808 8.19918H326.354C325.019 7.91167 323.665 7.71565 322.303 7.6125H322.292C309.3 6.62351 299.056 14.5353 300.014 24.1626C300.019 24.1737 300.031 24.1849 300.036 24.1961C300.314 24.6096 300.558 25.0007 300.773 25.3751C300.983 25.7271 301.158 26.0623 301.311 26.3808C302.495 28.8393 299.452 31.9329 301.47 32.5103C304.154 33.2783 294.41 58.52 305.035 58.52C299.867 59.9882 304.476 36.17 305.594 32.2588Z" fill="#212121"/>
<path d="M317.192 47.0695C325.63 47.0695 332.471 40.2346 332.471 31.8033C332.471 23.372 325.63 16.5371 317.192 16.5371C308.753 16.5371 301.913 23.372 301.913 31.8033C301.913 40.2346 308.753 47.0695 317.192 47.0695Z" fill="#A0616A"/>
<path d="M300.014 24.9953C300.269 25.1294 300.518 25.2523 300.773 25.3752C301.039 25.5037 301.306 25.6323 301.572 25.7496C306.688 28.0684 310.853 28.3254 313.38 24.9953C313.447 23.2431 313.841 21.5187 314.541 19.9107C314.417 21.7077 314.891 23.4952 315.89 24.9953H320.977C326.218 28.4707 328.91 28.8339 325.272 40.2435C324.258 43.4228 320.225 61.9229 321.812 64.6664C322.271 64.6161 327.153 44.3527 327.595 44.2689C337.556 42.3859 343.884 25.9899 343.074 25.0624C343.078 22.4248 342.471 19.822 341.301 17.4578C339.82 14.4625 337.512 11.9535 334.649 10.2276C332.943 9.4009 331.164 8.73316 329.334 8.23287C329.289 8.22169 329.249 8.2105 329.204 8.19935C328.643 8.04847 328.071 7.90879 327.499 7.79145C326.317 7.54204 325.121 7.36108 323.918 7.24948C323.833 7.24388 323.748 7.23828 323.669 7.23828C323.188 7.2394 322.717 7.36865 322.303 7.61267C322.298 7.61267 322.298 7.61823 322.292 7.61823C321.996 7.79083 321.738 8.02068 321.533 8.2943C321.171 8.7547 320.975 9.3237 320.977 9.90909H315.312C315.102 9.90909 314.892 9.91467 314.683 9.92583C310.901 10.055 307.304 11.5893 304.595 14.2287C301.886 16.8681 300.261 20.4225 300.037 24.1963C300.02 24.4645 300.014 24.7271 300.014 24.9953Z" fill="#212121"/>
<path d="M333.421 20.1149C338.98 20.1149 343.487 15.612 343.487 10.0575C343.487 4.50288 338.98 0 333.421 0C327.861 0 323.355 4.50288 323.355 10.0575C323.355 15.612 327.861 20.1149 333.421 20.1149Z" fill="#212121"/>
<path d="M366.925 193.736C367.416 192.962 367.733 192.09 367.854 191.182C367.975 190.273 367.898 189.349 367.626 188.474C367.355 187.598 366.896 186.792 366.282 186.111C365.668 185.43 364.914 184.891 364.07 184.53L364.12 152.989L355.392 150.83L355.607 188.292C355.104 189.755 355.157 191.352 355.754 192.779C356.351 194.207 357.451 195.366 358.846 196.037C360.241 196.708 361.834 196.844 363.323 196.42C364.812 195.996 366.094 195.041 366.925 193.736Z" fill="#A0616A"/>
<path d="M323.703 77.8729L337.285 68.6501C337.919 68.2198 338.635 67.9267 339.389 67.7896C340.143 67.6524 340.917 67.6742 341.662 67.8536C342.406 68.033 343.105 68.3661 343.714 68.8314C344.322 69.2967 344.826 69.8839 345.194 70.5554L368.546 113.191L368.635 175.588L354.056 174.675L348.071 123.16L323.703 77.8729Z" fill="#1D72F2"/>
<path d="M219.389 219.381H74.2282C71.0709 219.381 68.0428 220.634 65.8103 222.865C63.5777 225.095 62.3235 228.121 62.3235 231.275C62.3235 234.43 63.5777 237.456 65.8103 239.686C68.0428 241.917 71.0709 243.17 74.2282 243.17H219.389C222.546 243.17 225.574 241.917 227.806 239.686C230.039 237.456 231.293 234.43 231.293 231.275C231.293 228.121 230.039 225.095 227.806 222.865C225.574 220.634 222.546 219.381 219.389 219.381Z" fill="white"/>
<path d="M219.388 243.937H74.2282C70.8671 243.937 67.6438 242.603 65.2672 240.229C62.8906 237.854 61.5554 234.633 61.5554 231.275C61.5554 227.917 62.8906 224.696 65.2672 222.322C67.6438 219.947 70.8671 218.613 74.2282 218.613H219.388C222.75 218.613 225.973 219.947 228.349 222.322C230.726 224.696 232.061 227.917 232.061 231.275C232.061 234.633 230.726 237.854 228.349 240.229C225.973 242.603 222.75 243.937 219.388 243.937ZM74.2282 220.148C71.2745 220.148 68.4419 221.32 66.3534 223.407C64.2648 225.494 63.0915 228.324 63.0915 231.275C63.0915 234.226 64.2648 237.057 66.3534 239.143C68.4419 241.23 71.2745 242.402 74.2282 242.402H219.388C222.342 242.402 225.175 241.23 227.263 239.143C229.352 237.057 230.525 234.226 230.525 231.275C230.525 228.324 229.352 225.494 227.263 223.407C225.175 221.32 222.342 220.148 219.388 220.148H74.2282Z" fill="#1D72F2"/>
<path d="M227.948 271.289H163.888C162.99 271.289 162.129 270.933 161.494 270.299C160.859 269.664 160.503 268.804 160.503 267.907C160.503 267.009 160.859 266.149 161.494 265.515C162.129 264.88 162.99 264.524 163.888 264.524H227.948C228.846 264.524 229.707 264.88 230.342 265.515C230.977 266.149 231.334 267.009 231.334 267.907C231.334 268.804 230.977 269.664 230.342 270.299C229.707 270.933 228.846 271.289 227.948 271.289Z" fill="#1D72F2"/>
</g>
<defs>
<clipPath id="clip0_875_4113">
<rect width="379" height="369" fill="white"/>
</clipPath>
</defs>
</svg>
