<svg id="visual" viewBox="0 0 900 600" width="900" height="600" xmlns="http://www.w3.org/2000/svg" xmlns:xlink="http://www.w3.org/1999/xlink" version="1.1"><path d="M0 558L11.5 559.3C23 560.7 46 563.3 69 565.7C92 568 115 570 138.2 566.3C161.3 562.7 184.7 553.3 207.8 545.8C231 538.3 254 532.7 277 528.2C300 523.7 323 520.3 346 526.5C369 532.7 392 548.3 415.2 547C438.3 545.7 461.7 527.3 484.8 526.5C508 525.7 531 542.3 554 552.8C577 563.3 600 567.7 623 567C646 566.3 669 560.7 692.2 554.5C715.3 548.3 738.7 541.7 761.8 544.8C785 548 808 561 831 563.5C854 566 877 558 888.5 554L900 550L900 601L888.5 601C877 601 854 601 831 601C808 601 785 601 761.8 601C738.7 601 715.3 601 692.2 601C669 601 646 601 623 601C600 601 577 601 554 601C531 601 508 601 484.8 601C461.7 601 438.3 601 415.2 601C392 601 369 601 346 601C323 601 300 601 277 601C254 601 231 601 207.8 601C184.7 601 161.3 601 138.2 601C115 601 92 601 69 601C46 601 23 601 11.5 601L0 601Z" fill="#1d72f2" stroke-linecap="round" stroke-linejoin="miter"></path></svg>