<svg width="24" height="25" viewBox="0 0 24 25" fill="none" xmlns="http://www.w3.org/2000/svg">
<path d="M11.05 15.009L9.2 16.859C8.81 17.249 8.19 17.249 7.79 16.869C7.68 16.759 7.57 16.659 7.46 16.549C6.43 15.509 5.5 14.419 4.67 13.279C3.85 12.139 3.19 10.999 2.71 9.86896C2.24 8.72896 2 7.63896 2 6.59896C2 5.91896 2.12 5.26896 2.36 4.66896C2.6 4.05896 2.98 3.49896 3.51 2.99896C4.15 2.36896 4.85 2.05896 5.59 2.05896C5.87 2.05896 6.15 2.11896 6.4 2.23896C6.66 2.35896 6.89 2.53896 7.07 2.79896L9.39 6.06896C9.57 6.31896 9.7 6.54896 9.79 6.76896C9.88 6.97896 9.93 7.18896 9.93 7.37896C9.93 7.61896 9.86 7.85896 9.72 8.08896C9.59 8.31896 9.4 8.55896 9.16 8.79896L8.4 9.58896C8.29 9.69896 8.24 9.82896 8.24 9.98896C8.24 10.069 8.25 10.139 8.27 10.219C8.3 10.299 8.33 10.359 8.35 10.419C8.53 10.749 8.84 11.179 9.28 11.699C9.73 12.219 10.21 12.749 10.73 13.279C10.83 13.379 10.94 13.479 11.04 13.579C11.44 13.969 11.45 14.609 11.05 15.009Z" fill="white"/>
<path d="M21.9696 18.388C21.9696 18.668 21.9196 18.958 21.8196 19.238C21.7896 19.318 21.7596 19.398 21.7196 19.478C21.5496 19.838 21.3296 20.178 21.0396 20.498C20.5496 21.038 20.0096 21.428 19.3996 21.678C19.3896 21.678 19.3796 21.688 19.3696 21.688C18.7796 21.928 18.1396 22.058 17.4496 22.058C16.4296 22.058 15.3396 21.818 14.1896 21.328C13.0396 20.838 11.8896 20.178 10.7496 19.348C10.3596 19.058 9.96961 18.768 9.59961 18.458L12.8696 15.188C13.1496 15.398 13.3996 15.558 13.6096 15.668C13.6596 15.688 13.7196 15.718 13.7896 15.748C13.8696 15.778 13.9496 15.788 14.0396 15.788C14.2096 15.788 14.3396 15.728 14.4496 15.618L15.2096 14.868C15.4596 14.618 15.6996 14.428 15.9296 14.308C16.1596 14.168 16.3896 14.098 16.6396 14.098C16.8296 14.098 17.0296 14.138 17.2496 14.228C17.4696 14.318 17.6996 14.448 17.9496 14.618L21.2596 16.968C21.5196 17.148 21.6996 17.358 21.8096 17.608C21.9096 17.858 21.9696 18.108 21.9696 18.388Z" fill="white"/>
</svg>
