<svg width="24" height="25" viewBox="0 0 24 25" fill="none" xmlns="http://www.w3.org/2000/svg">
<path d="M20.62 8.50896C19.57 3.88896 15.54 1.80896 12 1.80896C12 1.80896 12 1.80896 11.99 1.80896C8.46 1.80896 4.42 3.87896 3.37 8.49896C2.2 13.659 5.36 18.029 8.22 20.779C9.28 21.799 10.64 22.309 12 22.309C13.36 22.309 14.72 21.799 15.77 20.779C18.63 18.029 21.79 13.669 20.62 8.50896ZM12 13.519C10.26 13.519 8.85 12.109 8.85 10.369C8.85 8.62896 10.26 7.21896 12 7.21896C13.74 7.21896 15.15 8.62896 15.15 10.369C15.15 12.109 13.74 13.519 12 13.519Z" fill="white"/>
</svg>
