<svg width="24" height="25" viewBox="0 0 24 25" fill="none" xmlns="http://www.w3.org/2000/svg">
<path d="M17 3.55896H7C4 3.55896 2 5.05896 2 8.55896V15.559C2 19.059 4 20.559 7 20.559H17C20 20.559 22 19.059 22 15.559V8.55896C22 5.05896 20 3.55896 17 3.55896ZM17.47 9.64896L14.34 12.149C13.68 12.679 12.84 12.939 12 12.939C11.16 12.939 10.31 12.679 9.66 12.149L6.53 9.64896C6.21 9.38896 6.16 8.90896 6.41 8.58896C6.67 8.26896 7.14 8.20896 7.46 8.46896L10.59 10.969C11.35 11.579 12.64 11.579 13.4 10.969L16.53 8.46896C16.85 8.20896 17.33 8.25896 17.58 8.58896C17.84 8.90896 17.79 9.38896 17.47 9.64896Z" fill="white"/>
</svg>
