<svg width="323" height="269" viewBox="0 0 323 269" fill="none" xmlns="http://www.w3.org/2000/svg">
<g clip-path="url(#clip0_886_1720)">
<path d="M80.6008 207.018H312.424C313.752 207.018 315.067 206.757 316.293 206.248C317.52 205.74 318.634 204.995 319.573 204.056C320.512 203.117 321.256 202.002 321.765 200.775C322.273 199.548 322.534 198.233 322.534 196.904V62.791C322.536 61.8947 322.417 61.0022 322.18 60.1378C321.598 57.9952 320.328 56.1038 318.565 54.7554C316.801 53.407 314.644 52.6767 312.424 52.6772H221.877C219.765 56.2368 218.463 60.2187 218.065 64.3391C216.941 76.318 223.807 87.3923 229.95 97.7392C236.093 108.086 241.952 120.116 238.698 131.703C236.498 139.518 230.537 145.175 223.14 148.564C216.033 151.711 208.215 152.902 200.493 152.015C195.856 151.429 191.287 150.386 186.855 148.9C181.043 147.012 175.366 144.564 169.699 142.088C169.694 142.088 169.694 142.088 169.689 142.083C169.591 142.041 169.489 141.994 169.391 141.952C165.005 140.036 160.624 138.115 156.177 136.422C150.967 134.384 145.559 132.893 140.041 131.974C131.656 130.659 123.201 131.135 115.721 134.94C103.528 141.136 96.9932 154.528 91.8802 167.221C86.7159 180.053 82.0877 193.314 80.6008 207.018Z" fill="#1D72F2"/>
<path d="M0.466064 155.713V196.905C0.465993 198.233 0.727427 199.548 1.23545 200.775C1.74347 202.002 2.48814 203.117 3.4269 204.056C4.36567 204.995 5.48015 205.74 6.70673 206.249C7.9333 206.757 9.24793 207.018 10.5755 207.018H49.1118C49.7783 200.803 49.219 194.611 46.7721 188.833C41.44 176.234 28.5386 168.783 16.2386 162.8C11.0696 160.287 5.81211 157.862 0.466064 155.713Z" fill="#1D72F2"/>
<path d="M40.8513 197.506C40.8513 200.188 41.9164 202.761 43.8123 204.658C45.7082 206.554 48.2796 207.62 50.9608 207.62H89.4971C90.1636 201.404 89.6043 195.212 87.1573 189.435C85.9037 186.472 82.9755 183.191 79.1598 179.877C64.1898 166.873 40.8513 177.672 40.8513 197.506Z" fill="#1D72F2"/>
<path d="M0 196.904V62.791C0.0031778 59.9859 1.1184 57.2967 3.10101 55.3133C5.08362 53.3298 7.77171 52.2141 10.5755 52.2109H312.424C315.228 52.2141 317.916 53.3298 319.899 55.3133C321.882 57.2967 322.997 59.9859 323 62.791V196.904C322.997 199.709 321.882 202.398 319.899 204.382C317.916 206.365 315.228 207.481 312.424 207.484H10.5755C7.77167 207.481 5.08356 206.365 3.10094 204.382C1.11833 202.398 0.00312967 199.709 0 196.904ZM10.5755 53.1435C8.01884 53.1464 5.56767 54.1637 3.75981 55.9723C1.95195 57.781 0.935035 60.2332 0.932179 62.791V196.904C0.934988 199.462 1.95187 201.914 3.75974 203.723C5.5676 205.532 8.0188 206.549 10.5755 206.552H312.424C314.981 206.549 317.432 205.532 319.24 203.723C321.048 201.914 322.065 199.462 322.068 196.904V62.791C322.065 60.2332 321.048 57.781 319.24 55.9723C317.432 54.1637 314.981 53.1464 312.424 53.1435H10.5755Z" fill="#2C2C2C"/>
<path d="M99.8877 206.687H113.595C115.94 198.79 119.324 190.419 122.414 182.79C128.342 168.164 135.916 152.731 150.053 145.589C156.089 142.54 162.67 141.348 169.391 141.413C178.675 141.501 188.221 143.995 196.96 147.299C200.535 148.648 204.077 150.131 207.606 151.646C220.899 157.361 234.047 163.585 248.342 165.267C266.431 167.394 287.698 159.298 292.639 141.858C296.41 128.506 289.619 114.644 282.497 102.72C275.375 90.7951 267.414 78.0363 268.715 64.2301C268.719 64.1837 268.724 64.1327 268.733 64.0864C269.223 59.1274 272.182 55.5636 276.317 53.2788H258.316C258.078 66.1581 265.527 77.5265 272.229 88.7513C279.351 100.671 286.142 114.538 282.371 127.89C277.431 145.325 236.52 124.887 218.431 122.756C213.323 122.158 221.438 124.285 216.567 122.756C208.928 120.359 208.081 142.336 200.647 139.11C196.019 137.099 191.386 135.101 186.692 133.326C184.749 132.589 182.763 131.899 180.754 131.259C180.75 131.259 180.75 131.259 180.745 131.254C167.256 126.981 152.505 125.318 140.041 131.496C139.957 131.537 139.869 131.579 139.785 131.621C125.648 138.758 118.075 154.191 112.146 168.817C107.247 180.909 102.302 193.933 99.8877 206.687Z" fill="url(#paint0_linear_886_1720)"/>
<path d="M100.037 110.562H10.8776C10.1471 110.562 9.44643 110.852 8.92984 111.369C8.41326 111.885 8.12305 112.586 8.12305 113.317C8.12305 114.048 8.41326 114.749 8.92984 115.266C9.44643 115.783 10.1471 116.073 10.8776 116.073H100.037C100.767 116.073 101.468 115.783 101.984 115.266C102.501 114.749 102.791 114.048 102.791 113.317C102.791 112.586 102.501 111.885 101.984 111.369C101.468 110.852 100.767 110.562 100.037 110.562Z" fill="#2C2C2C"/>
<path d="M38.5836 95.1094H10.9397C10.2091 95.1094 9.50846 95.3997 8.99187 95.9165C8.47528 96.4333 8.18506 97.1343 8.18506 97.8651C8.18506 98.596 8.47528 99.297 8.99187 99.8138C9.50846 100.331 10.2091 100.621 10.9397 100.621H38.5836C39.3142 100.621 40.0148 100.331 40.5314 99.8138C41.048 99.297 41.3382 98.596 41.3382 97.8651C41.3382 97.1343 41.048 96.4333 40.5314 95.9165C40.0148 95.3997 39.3142 95.1094 38.5836 95.1094Z" fill="#E84531"/>
<path d="M145.186 256.423L139.535 256.375L137.034 234.063L145.373 234.133L145.186 256.423Z" fill="#FFB8B8"/>
<path d="M127.086 265.412C127.081 266.082 127.342 266.727 127.812 267.205C128.281 267.683 128.921 267.955 129.591 267.961L140.826 268.055L142.792 264.067L143.515 268.076L147.754 268.114L146.683 253.817L145.208 253.719L139.193 253.304L137.252 253.174L137.218 257.219L128.194 263.343C127.855 263.572 127.578 263.881 127.385 264.241C127.192 264.601 127.09 265.003 127.086 265.412Z" fill="#2C2C2C"/>
<path d="M202.515 256.423L196.864 256.375L194.363 234.063L202.702 234.133L202.515 256.423Z" fill="#FFB8B8"/>
<path d="M184.415 265.412C184.41 266.082 184.671 266.727 185.141 267.205C185.61 267.683 186.25 267.955 186.92 267.961L198.154 268.055L200.121 264.067L200.843 268.076L205.083 268.114L204.012 253.817L202.537 253.719L196.522 253.304L194.581 253.174L194.547 257.219L185.522 263.343C185.184 263.572 184.907 263.881 184.714 264.241C184.521 264.601 184.419 265.003 184.415 265.412Z" fill="#2C2C2C"/>
<path d="M138.215 77.7393L163.646 58.1594C164.721 57.3267 165.426 56.1045 165.608 54.7567C165.79 53.4088 165.435 52.0433 164.62 50.9548C164.198 50.3918 163.666 49.9205 163.056 49.5698C162.447 49.2191 161.772 48.9964 161.073 48.9151C160.375 48.8338 159.667 48.8957 158.993 49.097C158.319 49.2983 157.693 49.6349 157.153 50.0861L131.36 71.235L115.146 83.4249C114.343 82.9582 113.417 82.75 112.492 82.8284C111.567 82.9069 110.689 83.2683 109.976 83.8635C109.264 84.4587 108.752 85.2588 108.51 86.1552C108.268 87.0517 108.308 88.0009 108.624 88.8739C108.94 89.747 109.517 90.5015 110.277 91.035C111.036 91.5686 111.942 91.8552 112.87 91.8561C113.798 91.8569 114.704 91.5719 115.464 91.0397C116.225 90.5076 116.803 89.7541 117.121 88.8816L138.215 77.7393Z" fill="#FFB8B8"/>
<path d="M158.943 82.2406L157.822 107.287L195.895 111.896C192.899 101.832 187.986 87.8531 190.237 80.8491L158.943 82.2406Z" fill="#A0616A"/>
<path d="M180.585 36.3237H168.857L163.82 44.9458L161.42 44.8133C156.743 46.6154 154.879 48.4806 152.298 53.4498L143.227 61.0703L150.218 69.4635C155.047 68.672 156.788 64.922 155.255 58.0348C155.255 58.0348 149.966 67.2548 157.584 71.7908C157.584 71.7908 156.225 80.3369 157.584 80.2451C158.943 80.1532 162.072 78.4139 158.943 80.1532C155.813 81.8925 156.349 81.9676 156.451 82.5311C158.141 91.8452 159.54 98.8395 159.54 98.8395L192.632 102.104C192.632 102.104 190.725 82.082 190.829 80.9437C190.933 79.8054 190.237 82.5883 190.933 79.8054C191.628 77.0224 192.671 78.066 191.628 77.0224C190.585 75.9788 198.799 75.0801 195.593 70.0651L206.313 67.2673L200.321 53.0198C200.321 48.2092 192.598 44.3094 187.789 44.3094H187.173L180.585 36.3237Z" fill="#F0F3F9"/>
<path d="M193.065 98.3204C180.118 102.776 168.463 101.797 158.608 93.2441C158.608 93.2441 155.834 103.502 153.026 102.104C150.218 100.705 151.606 104.619 150.834 106.054C150.016 107.578 150.966 110.148 148.262 111.022C145.557 111.896 146.573 114.464 145.698 116.354C139.57 129.58 132.573 148.301 127.846 172.047C122.988 196.447 134.837 237.327 134.837 237.327L146.023 236.394L148.82 183.237L161.61 160.769C161.61 160.769 167.894 157.109 163.95 155.252C160.006 153.395 162.648 151.094 165.522 151.545C168.395 151.996 171.658 137.075 171.658 137.075C167.561 147.376 193.098 238.259 193.098 238.259L203.818 237.327L197.759 110.497L193.065 98.3204Z" fill="#2C2C2C"/>
<path d="M187.545 14.6779C188.816 17.8456 192.403 24.0748 192.888 27.473L192.67 27.2579C192.253 27.9707 191.779 28.6487 191.252 29.2852C190.309 28.2942 189.17 27.5106 187.908 26.9843C188.597 28.3995 188.996 29.9385 189.082 31.5105C186.747 33.5446 180.784 32.3173 177.805 33.4014C173.01 35.1416 167.92 35.7612 162.894 36.2756C161.11 36.4594 159.113 36.5709 157.863 35.5163C156.613 34.4617 157.357 32.5088 156.685 31.0317C151.894 20.5101 156.315 16.714 160.072 11.9432C160.898 10.8933 160.895 9.32652 161.901 8.32479C163.296 6.9363 165.436 6.50921 167.408 6.1671C166.896 6.19411 166.385 6.08871 165.925 5.86104C165.465 5.63338 165.072 5.29112 164.782 4.86722C164.529 4.44013 164.398 3.95121 164.404 3.45438C164.41 2.95755 164.554 2.47211 164.818 2.05161C165.524 0.881625 166.989 0.201262 168.404 0.0312956C169.797 -0.0633548 171.196 0.0570008 172.553 0.38814C173.432 0.503774 174.283 0.775893 175.066 1.19163C175.435 1.3888 175.736 1.69409 175.927 2.06668C176.118 2.43927 176.191 2.86141 176.136 3.27665C176.019 3.66011 175.816 4.01201 175.543 4.3061C175.27 4.6002 174.935 4.82889 174.561 4.97513C173.992 5.21595 173.393 5.37995 172.78 5.46283C175.594 5.09755 178.452 5.59803 180.975 6.89768C184.136 8.58463 186.269 11.512 187.545 14.6779Z" fill="#2C2C2C"/>
<path d="M170.428 32.437C176.669 32.437 181.728 27.3757 181.728 21.1323C181.728 14.8889 176.669 9.82764 170.428 9.82764C164.187 9.82764 159.128 14.8889 159.128 21.1323C159.128 27.3757 164.187 32.437 170.428 32.437Z" fill="#FFB8B8"/>
<path d="M181.301 15.0708C180.646 17.0518 178.774 17.6901 177.043 18.0883C176.497 18.2155 175.948 18.3341 175.394 18.4396C175.19 18.1839 174.973 17.9333 174.745 17.6964C173.802 16.7054 172.663 15.9219 171.401 15.3956C171.947 16.5134 172.309 17.7118 172.475 18.9449C171.429 19.0967 170.377 19.2208 169.319 19.3172C168.424 19.5077 167.49 19.347 166.711 18.8683C165.931 18.3896 165.364 17.6294 165.129 16.7449C164.166 18.3203 163.027 19.8039 161.47 20.4297C160.58 20.7497 159.61 20.7761 158.704 20.5048C157.798 20.2335 157.002 19.6789 156.433 18.9222C155.501 17.7841 154.982 16.2551 154.608 14.7794C154.166 13.0252 153.921 11.0044 154.788 9.89133C155.483 8.99054 156.682 8.97436 157.789 9.05428C160.23 9.24166 162.646 9.67984 164.998 10.3619L165.197 10.8098C164.793 8.38044 165.67 6.04311 167.292 5.21187C168.386 4.65609 169.703 4.74928 170.982 4.86203C172.625 4.93537 174.248 5.24945 175.8 5.79422C177.58 6.47931 179.105 7.69797 180.167 9.28344C181.302 11.008 181.866 13.3601 181.301 15.0708Z" fill="#2C2C2C"/>
<path d="M165.192 4.505C165.304 4.47207 165.015 4.51436 165.115 4.51705C165.065 4.51416 165.016 4.50724 164.967 4.49634C164.959 4.49468 164.846 4.45876 164.921 4.48515C164.753 4.43494 164.604 4.3372 164.49 4.20373C164.225 3.87535 164.016 3.50457 163.874 3.10698C163.694 2.58156 163.406 2.10007 163.027 1.69412C162.92 1.58611 162.788 1.50498 162.643 1.45731C162.499 1.40965 162.345 1.39679 162.194 1.41979C162.044 1.44279 161.901 1.501 161.777 1.58968C161.653 1.67837 161.552 1.79503 161.481 1.9302C161.261 2.41722 161.462 3.01729 161.619 3.49562C161.781 3.99261 162.022 4.46021 162.333 4.88039C162.854 5.5675 163.563 6.08818 164.375 6.37899C165.314 6.72028 166.338 6.74956 167.295 6.4625C167.422 6.41001 167.53 6.32186 167.608 6.20878C167.685 6.09571 167.728 5.96259 167.731 5.82565C167.734 5.68871 167.697 5.55385 167.625 5.43751C167.552 5.32117 167.448 5.22836 167.324 5.17041L165.727 4.51666C165.643 4.47967 165.553 4.45959 165.461 4.45759C165.369 4.45559 165.278 4.47171 165.192 4.505C165.107 4.53829 165.028 4.5881 164.962 4.65162C164.896 4.71513 164.843 4.7911 164.806 4.87518C164.769 4.95925 164.749 5.04979 164.747 5.14162C164.745 5.23345 164.761 5.32477 164.794 5.41038C164.827 5.49598 164.877 5.5742 164.941 5.64055C165.004 5.7069 165.08 5.76009 165.164 5.79708L166.76 6.45081L166.789 5.15873C166.589 5.21626 166.385 5.25132 166.178 5.26327C165.957 5.2854 165.734 5.27599 165.516 5.23534C165.307 5.20793 165.101 5.15783 164.903 5.08593C164.776 5.03956 164.652 4.98678 164.53 4.9278C164.486 4.90635 164.442 4.88408 164.399 4.861C164.402 4.86266 164.216 4.75445 164.298 4.80529C164.091 4.67329 163.898 4.52232 163.719 4.35434C163.656 4.29477 163.598 4.23015 163.546 4.16112C163.455 4.04934 163.37 3.93234 163.293 3.81072C163.136 3.55317 163.011 3.27702 162.922 2.98866C162.882 2.86746 162.847 2.74423 162.82 2.61947C162.812 2.55099 162.799 2.48312 162.783 2.41632C162.723 2.25717 162.794 2.50925 162.726 2.57821L162.431 2.79516C162.376 2.81163 162.318 2.81545 162.261 2.80633C162.204 2.79721 162.15 2.77538 162.102 2.74247C162.068 2.69339 162.075 2.70153 162.125 2.7669C162.184 2.84382 162.237 2.92437 162.285 3.00806C162.391 3.20507 162.486 3.40732 162.571 3.61401C162.747 4.0536 162.969 4.47317 163.233 4.86558C163.493 5.26249 163.871 5.56735 164.313 5.73671C164.756 5.90607 165.241 5.93129 165.699 5.80877C165.871 5.74032 166.009 5.60704 166.083 5.43766C166.158 5.26828 166.163 5.07639 166.097 4.90339C166.027 4.7329 165.894 4.5962 165.725 4.52193C165.556 4.44766 165.365 4.4416 165.192 4.505Z" fill="#2C2C2C"/>
<path d="M147.568 127.327C166.021 127.327 180.98 112.362 180.98 93.9014C180.98 75.4408 166.021 60.4756 147.568 60.4756C129.115 60.4756 114.156 75.4408 114.156 93.9014C114.156 112.362 129.115 127.327 147.568 127.327Z" fill="white"/>
<path d="M147.568 127.793C140.868 127.793 134.318 125.806 128.747 122.082C123.176 118.358 118.833 113.064 116.269 106.871C113.705 100.678 113.034 93.8638 114.341 87.2894C115.649 80.715 118.875 74.676 123.613 69.9361C128.351 65.1962 134.387 61.9683 140.959 60.6605C147.53 59.3528 154.342 60.0239 160.532 62.5891C166.723 65.1543 172.014 69.4983 175.736 75.0718C179.459 80.6453 181.446 87.1979 181.446 93.9011C181.436 102.887 177.863 111.502 171.512 117.855C165.161 124.209 156.55 127.783 147.568 127.793ZM147.568 60.9419C141.052 60.9419 134.682 62.8749 129.265 66.4966C123.847 70.1182 119.624 75.2658 117.13 81.2884C114.637 87.3109 113.984 93.938 115.256 100.332C116.527 106.725 119.665 112.598 124.272 117.207C128.88 121.817 134.75 124.956 141.141 126.228C147.532 127.499 154.156 126.847 160.176 124.352C166.196 121.857 171.341 117.633 174.962 112.213C178.582 106.792 180.514 100.42 180.514 93.9011C180.504 85.1628 177.03 76.7852 170.853 70.6063C164.677 64.4273 156.303 60.9517 147.568 60.9419Z" fill="#2C2C2C"/>
<path d="M143.01 111.298C142.433 111.298 141.864 111.164 141.348 110.905C140.832 110.647 140.383 110.272 140.037 109.811L130.922 97.6516C130.629 97.261 130.416 96.8165 130.295 96.3435C130.174 95.8705 130.147 95.3783 130.216 94.8949C130.285 94.4116 130.449 93.9465 130.697 93.5264C130.946 93.1063 131.275 92.7393 131.665 92.4463C132.056 92.1534 132.5 91.9402 132.973 91.8191C133.446 91.6979 133.938 91.6711 134.421 91.7402C134.904 91.8092 135.369 91.9728 135.789 92.2216C136.209 92.4704 136.576 92.7995 136.868 93.1901L142.832 101.144L158.148 78.1601C158.419 77.7538 158.767 77.4049 159.173 77.1332C159.578 76.8615 160.033 76.6724 160.512 76.5766C160.991 76.4808 161.483 76.4803 161.962 76.5751C162.441 76.6698 162.896 76.858 163.302 77.1289C163.709 77.3997 164.057 77.7479 164.329 78.1537C164.601 78.5594 164.79 79.0146 164.885 79.4934C164.981 79.9722 164.982 80.4652 164.887 80.9442C164.792 81.4232 164.604 81.8788 164.333 82.2851L146.103 109.642C145.773 110.137 145.33 110.546 144.809 110.833C144.289 111.121 143.708 111.28 143.114 111.297C143.079 111.298 143.045 111.298 143.01 111.298Z" fill="#1D72F2"/>
<path d="M215.292 95.0446L204.37 64.8574C203.903 63.5798 202.953 62.537 201.725 61.9539C200.497 61.3708 199.089 61.2943 197.804 61.7408C197.14 61.9717 196.53 62.3356 196.01 62.8103C195.491 63.285 195.074 63.8604 194.784 64.5016C194.495 65.1429 194.339 65.8363 194.326 66.5399C194.313 67.2434 194.443 67.9422 194.709 68.5936L207.015 99.6028L213.699 118.76C213.011 119.383 212.531 120.203 212.325 121.109C212.119 122.014 212.196 122.961 212.546 123.821C212.897 124.68 213.503 125.412 214.284 125.914C215.064 126.417 215.98 126.668 216.907 126.632C217.835 126.596 218.729 126.275 219.467 125.713C220.206 125.151 220.754 124.375 221.037 123.491C221.32 122.606 221.323 121.656 221.048 120.77C220.772 119.883 220.23 119.103 219.496 118.535L215.292 95.0446Z" fill="#FFB8B8"/>
<path d="M198.856 51.4141L207.711 67.2678C207.711 67.2678 187.302 74.2584 187.253 73.0946C187.203 71.9307 188.267 55.7795 188.267 55.7795L198.856 51.4141Z" fill="#F0F3F9"/>
</g>
<defs>
<linearGradient id="paint0_linear_886_1720" x1="294" y1="44" x2="96" y2="188.5" gradientUnits="userSpaceOnUse">
<stop stop-color="#FAAF0D"/>
<stop offset="0.48" stop-color="#FF614D"/>
<stop offset="1" stop-color="#F0F3F9"/>
</linearGradient>
<clipPath id="clip0_886_1720">
<rect width="323" height="269" fill="white"/>
</clipPath>
</defs>
</svg>
