<svg width="31" height="32" viewBox="0 0 31 32" fill="none" xmlns="http://www.w3.org/2000/svg">
<rect x="0.333374" width="30" height="32" rx="15" fill="#FAAF0D"/>
<path d="M13.3334 10H17.3334C19.3334 10 19.3334 9 19.3334 8C19.3334 6 18.3334 6 17.3334 6H13.3334C12.3334 6 11.3334 6 11.3334 8C11.3334 10 12.3334 10 13.3334 10Z" stroke="white" stroke-width="1.5" stroke-miterlimit="10" stroke-linecap="round" stroke-linejoin="round"/>
<path d="M19.3334 10.0348C22.6634 10.2205 24.3334 8.91066 24.3334 13.6239V19.8119C24.3334 23.9373 23.3334 26 18.3334 26H12.3334C7.33337 26 6.33337 23.9373 6.33337 19.8119V13.6239C6.33337 8.92097 8.00337 10.2205 11.3334 10.0348" stroke="white" stroke-width="1.5" stroke-miterlimit="10" stroke-linecap="round" stroke-linejoin="round"/>
<path d="M18.3334 18H12.3334" stroke="white" stroke-width="1.5" stroke-miterlimit="10" stroke-linecap="round" stroke-linejoin="round"/>
<path d="M15.3334 21V15" stroke="white" stroke-width="1.5" stroke-miterlimit="10" stroke-linecap="round" stroke-linejoin="round"/>
</svg>
