<svg width="37" height="36" viewBox="0 0 37 36" fill="none" xmlns="http://www.w3.org/2000/svg">
<rect x="0.666656" width="36" height="36" rx="18" fill="#E84531"/>
<path d="M24.6667 13.16C24.6067 13.15 24.5367 13.15 24.4767 13.16C23.0967 13.11 21.9967 11.98 21.9967 10.58C21.9967 9.15 23.1467 8 24.5767 8C26.0067 8 27.1567 9.16 27.1567 10.58C27.1467 11.98 26.0467 13.11 24.6667 13.16Z" stroke="white" stroke-width="1.5" stroke-linecap="round" stroke-linejoin="round"/>
<path d="M23.6367 20.4399C25.0067 20.6699 26.5167 20.4299 27.5767 19.7199C28.9867 18.7799 28.9867 17.2399 27.5767 16.2999C26.5067 15.5899 24.9767 15.3499 23.6067 15.5899" stroke="white" stroke-width="1.5" stroke-linecap="round" stroke-linejoin="round"/>
<path d="M12.6367 13.16C12.6967 13.15 12.7667 13.15 12.8267 13.16C14.2067 13.11 15.3067 11.98 15.3067 10.58C15.3067 9.15 14.1567 8 12.7267 8C11.2967 8 10.1467 9.16 10.1467 10.58C10.1567 11.98 11.2567 13.11 12.6367 13.16Z" stroke="white" stroke-width="1.5" stroke-linecap="round" stroke-linejoin="round"/>
<path d="M13.6667 20.4399C12.2967 20.6699 10.7867 20.4299 9.72666 19.7199C8.31666 18.7799 8.31666 17.2399 9.72666 16.2999C10.7967 15.5899 12.3267 15.3499 13.6967 15.5899" stroke="white" stroke-width="1.5" stroke-linecap="round" stroke-linejoin="round"/>
<path d="M18.6667 20.63C18.6067 20.62 18.5367 20.62 18.4767 20.63C17.0967 20.58 15.9967 19.45 15.9967 18.05C15.9967 16.62 17.1467 15.47 18.5767 15.47C20.0067 15.47 21.1567 16.63 21.1567 18.05C21.1467 19.45 20.0467 20.59 18.6667 20.63Z" stroke="white" stroke-width="1.5" stroke-linecap="round" stroke-linejoin="round"/>
<path d="M15.7567 23.7799C14.3467 24.7199 14.3467 26.2599 15.7567 27.1999C17.3567 28.2699 19.9767 28.2699 21.5767 27.1999C22.9867 26.2599 22.9867 24.7199 21.5767 23.7799C19.9867 22.7199 17.3567 22.7199 15.7567 23.7799Z" stroke="white" stroke-width="1.5" stroke-linecap="round" stroke-linejoin="round"/>
</svg>
