<svg width="369" height="369" viewBox="0 0 369 369" fill="none" xmlns="http://www.w3.org/2000/svg">
<g clip-path="url(#clip0_635_2797)">
<rect width="369" height="369" fill="#1D72F2"/>
<g clip-path="url(#clip1_635_2797)">
<path d="M314.728 368.609L318.18 435.027C318.18 435.027 172.154 295.76 153.961 255.013C135.769 214.265 170.013 113.468 170.013 113.468L245.993 155.288L314.728 368.609Z" fill="#E84531"/>
<path d="M90.8233 85.5874L68.3505 87.732C68.3505 87.732 56.579 113.467 92.9636 115.612L90.8233 85.5874Z" fill="#E84531"/>
<path d="M90.8233 125.263L68.3505 127.408C68.3505 127.408 56.579 153.143 92.9636 155.288L90.8233 125.263Z" fill="#E84531"/>
<path d="M90.8233 168.156L68.3505 170.3C68.3505 170.3 56.579 196.036 92.9636 198.18L90.8233 168.156Z" fill="#E84531"/>
<path d="M97.2441 211.048L74.7712 213.192C74.7712 213.192 62.9997 238.928 99.3843 241.073L97.2441 211.048Z" fill="#E84531"/>
<path d="M79.8826 95.9264H81.5878V49.1185C81.5877 45.5608 82.2871 42.038 83.6457 38.7512C85.0044 35.4643 86.9959 32.4778 89.5064 29.9622C92.017 27.4465 94.9974 25.451 98.2776 24.0895C101.558 22.7281 105.073 22.0273 108.624 22.0273H207.591C211.142 22.0273 214.658 22.7281 217.938 24.0895C221.218 25.451 224.198 27.4465 226.709 29.9621C229.219 32.4778 231.211 35.4642 232.57 38.7511C233.928 42.0379 234.628 45.5608 234.628 49.1184V305.91C234.628 309.468 233.928 312.991 232.57 316.277C231.211 319.564 229.22 322.551 226.709 325.066C224.198 327.582 221.218 329.578 217.938 330.939C214.658 332.301 211.142 333.001 207.592 333.001H108.624C101.454 333.001 94.5768 330.147 89.5065 325.067C84.4363 319.986 81.5878 313.095 81.5878 305.91V129.245H79.8826V95.9264Z" fill="#3F3D56"/>
<path d="M107.533 29.0755H120.452C119.858 30.5349 119.631 32.1184 119.791 33.6864C119.952 35.2544 120.495 36.7588 121.372 38.067C122.249 39.3752 123.435 40.4472 124.823 41.1884C126.211 41.9296 127.76 42.3173 129.333 42.3175H186.03C187.603 42.3174 189.152 41.9296 190.54 41.1884C191.928 40.4472 193.114 39.3752 193.991 38.067C194.868 36.7588 195.411 35.2544 195.572 33.6864C195.732 32.1184 195.505 30.5349 194.911 29.0754H206.977C212.332 29.0754 217.468 31.2069 221.254 35.001C225.04 38.7952 227.168 43.9411 227.168 49.3068V305.722C227.168 308.378 226.645 311.009 225.631 313.464C224.616 315.918 223.129 318.149 221.254 320.027C219.379 321.906 217.153 323.396 214.704 324.413C212.254 325.43 209.629 325.953 206.977 325.953H107.533C104.882 325.953 102.256 325.43 99.8066 324.413C97.357 323.396 95.1312 321.906 93.2564 320.027C91.3815 318.149 89.8943 315.918 88.8797 313.464C87.865 311.009 87.3428 308.379 87.3428 305.722V49.3068C87.3428 46.65 87.865 44.0192 88.8797 41.5646C89.8943 39.11 91.3815 36.8797 93.2564 35.0011C95.1312 33.1224 97.357 31.6322 99.8066 30.6155C102.256 29.5987 104.882 29.0755 107.533 29.0755Z" fill="white"/>
<path d="M178.561 100.91H135.949V111.214H178.561V100.91Z" fill="#1D72F2"/>
<path d="M180.59 145.184H133.921V155.487H180.59V145.184Z" fill="#E5E5E5"/>
<path d="M209.335 167.317H105.175V177.62H209.335V167.317Z" fill="#E5E5E5"/>
<path d="M209.335 189.45H105.175V199.753H209.335V189.45Z" fill="#E5E5E5"/>
<path d="M415.534 403.202L295.754 266.272L291.474 178.342L246.528 103.281L233.686 71.1113C233.686 71.1113 203.723 74.3283 228.336 135.45L238.502 168.155C229.338 187.934 224.59 209.477 224.59 231.283V306.227C224.59 323.874 308.515 419.998 318.284 434.681L415.534 403.202Z" fill="#E84531"/>
<path opacity="0.2" d="M237.21 109.641L246.145 105.241L245.841 104.62L237.585 108.686L225.122 75.9451L224.477 76.1921L237.21 109.641Z" fill="black"/>
<path opacity="0.2" d="M68.4701 87.4064L68.2314 88.0557L81.468 92.9415L81.7067 92.2922L68.4701 87.4064Z" fill="black"/>
<path opacity="0.2" d="M68.4701 127.534L68.2314 128.183L81.468 133.069L81.7067 132.42L68.4701 127.534Z" fill="black"/>
<path opacity="0.2" d="M68.4701 170.429L68.2314 171.078L81.468 175.964L81.7067 175.315L68.4701 170.429Z" fill="black"/>
<path opacity="0.2" d="M75.4049 213.337L75.1062 213.96L81.5505 217.06L81.8492 216.436L75.4049 213.337Z" fill="black"/>
<path d="M157.308 288.672C173.793 288.672 187.156 275.282 187.156 258.763C187.156 242.245 173.793 228.854 157.308 228.854C140.823 228.854 127.46 242.245 127.46 258.763C127.46 275.282 140.823 288.672 157.308 288.672Z" fill="#1D72F2"/>
<path d="M154.463 271.389L145.53 259.878L150.725 255.829L154.955 261.279L169.245 246.164L174.024 250.7L154.463 271.389Z" fill="white"/>
</g>
<g filter="url(#filter0_f_635_2797)">
<circle cx="12.0337" cy="368.527" r="67.5" fill="#EBEBEB"/>
</g>
<g filter="url(#filter1_f_635_2797)">
<circle cx="394.034" cy="109.527" r="67.5" fill="#EBEBEB"/>
</g>
</g>
<defs>
<filter id="filter0_f_635_2797" x="-155.466" y="201.027" width="335" height="335" filterUnits="userSpaceOnUse" color-interpolation-filters="sRGB">
<feFlood flood-opacity="0" result="BackgroundImageFix"/>
<feBlend mode="normal" in="SourceGraphic" in2="BackgroundImageFix" result="shape"/>
<feGaussianBlur stdDeviation="50" result="effect1_foregroundBlur_635_2797"/>
</filter>
<filter id="filter1_f_635_2797" x="226.534" y="-57.9727" width="335" height="335" filterUnits="userSpaceOnUse" color-interpolation-filters="sRGB">
<feFlood flood-opacity="0" result="BackgroundImageFix"/>
<feBlend mode="normal" in="SourceGraphic" in2="BackgroundImageFix" result="shape"/>
<feGaussianBlur stdDeviation="50" result="effect1_foregroundBlur_635_2797"/>
</filter>
<clipPath id="clip0_635_2797">
<rect width="369" height="369" fill="white"/>
</clipPath>
<clipPath id="clip1_635_2797">
<rect width="349" height="413" fill="white" transform="translate(66.5337 22.0273)"/>
</clipPath>
</defs>
</svg>
