<svg width="32" height="32" viewBox="0 0 32 32" fill="none" xmlns="http://www.w3.org/2000/svg">
<rect width="32" height="32" rx="8" fill="#1D72F2" fill-opacity="0.2"/>
<path d="M20.75 7.56V6C20.75 5.59 20.41 5.25 20 5.25C19.59 5.25 19.25 5.59 19.25 6V7.5H12.75V6C12.75 5.59 12.41 5.25 12 5.25C11.59 5.25 11.25 5.59 11.25 6V7.56C8.54999 7.81 7.23999 9.42 7.03999 11.81C7.01999 12.1 7.25999 12.34 7.53999 12.34H24.46C24.75 12.34 24.99 12.09 24.96 11.81C24.76 9.42 23.45 7.81 20.75 7.56Z" fill="#1D72F2"/>
<path d="M23 19C20.79 19 19 20.79 19 23C19 23.75 19.21 24.46 19.58 25.06C20.27 26.22 21.54 27 23 27C24.46 27 25.73 26.22 26.42 25.06C26.79 24.46 27 23.75 27 23C27 20.79 25.21 19 23 19ZM25.07 22.57L22.94 24.54C22.8 24.67 22.61 24.74 22.43 24.74C22.24 24.74 22.05 24.67 21.9 24.52L20.91 23.53C20.62 23.24 20.62 22.76 20.91 22.47C21.2 22.18 21.68 22.18 21.97 22.47L22.45 22.95L24.05 21.47C24.35 21.19 24.83 21.21 25.11 21.51C25.39 21.81 25.37 22.28 25.07 22.57Z" fill="#1D72F2"/>
<path d="M24 13.84H8C7.45 13.84 7 14.29 7 14.84V21C7 24 8.5 26 12 26H16.93C17.62 26 18.1 25.33 17.88 24.68C17.68 24.1 17.51 23.46 17.51 23C17.51 19.97 19.98 17.5 23.01 17.5C23.3 17.5 23.59 17.52 23.87 17.57C24.47 17.66 25.01 17.19 25.01 16.59V14.85C25 14.29 24.55 13.84 24 13.84ZM13.21 22.21C13.02 22.39 12.76 22.5 12.5 22.5C12.24 22.5 11.98 22.39 11.79 22.21C11.61 22.02 11.5 21.76 11.5 21.5C11.5 21.24 11.61 20.98 11.79 20.79C11.89 20.7 11.99 20.63 12.12 20.58C12.49 20.42 12.93 20.51 13.21 20.79C13.39 20.98 13.5 21.24 13.5 21.5C13.5 21.76 13.39 22.02 13.21 22.21ZM13.21 18.71C13.16 18.75 13.11 18.79 13.06 18.83C13 18.87 12.94 18.9 12.88 18.92C12.82 18.95 12.76 18.97 12.7 18.98C12.63 18.99 12.56 19 12.5 19C12.24 19 11.98 18.89 11.79 18.71C11.61 18.52 11.5 18.26 11.5 18C11.5 17.74 11.61 17.48 11.79 17.29C12.02 17.06 12.37 16.95 12.7 17.02C12.76 17.03 12.82 17.05 12.88 17.08C12.94 17.1 13 17.13 13.06 17.17C13.11 17.21 13.16 17.25 13.21 17.29C13.39 17.48 13.5 17.74 13.5 18C13.5 18.26 13.39 18.52 13.21 18.71ZM16.71 18.71C16.52 18.89 16.26 19 16 19C15.74 19 15.48 18.89 15.29 18.71C15.11 18.52 15 18.26 15 18C15 17.74 15.11 17.48 15.29 17.29C15.67 16.92 16.34 16.92 16.71 17.29C16.89 17.48 17 17.74 17 18C17 18.26 16.89 18.52 16.71 18.71Z" fill="#1D72F2"/>
</svg>
