<svg width="32" height="32" viewBox="0 0 32 32" fill="none" xmlns="http://www.w3.org/2000/svg">
<rect width="32" height="32" rx="8" fill="#1D72F2" fill-opacity="0.2"/>
<path d="M26 11.81V16.5H21.92C21.8 16.49 21.54 16.34 21.48 16.23L20.44 14.26C20.03 13.48 19.32 13.04 18.56 13.08C17.8 13.12 17.15 13.63 16.82 14.46L15.44 17.92L15.24 17.4C14.75 16.13 13.35 15.17 11.97 15.17L6 15.2V11.81C6 8.17 8.17 6 11.81 6H20.19C23.83 6 26 8.17 26 11.81Z" fill="#1D72F2"/>
<path d="M26 20.19V18H21.92C21.25 18 20.46 17.52 20.15 16.93L19.11 14.96C18.83 14.43 18.43 14.46 18.21 15.01L15.91 20.82C15.66 21.47 15.24 21.47 14.98 20.82L13.84 17.94C13.57 17.24 12.73 16.67 11.98 16.67L6 16.7V20.19C6 23.77 8.1 25.93 11.63 25.99C11.74 26 11.86 26 11.97 26H19.97C20.12 26 20.27 26 20.41 25.99C23.92 25.91 26 23.76 26 20.19Z" fill="#1D72F2"/>
<path d="M5.99997 16.7V20.01C5.97997 19.69 5.96997 19.35 5.96997 19V16.7H5.99997Z" fill="#1D72F2"/>
</svg>
