<svg width="32" height="32" viewBox="0 0 32 32" fill="none" xmlns="http://www.w3.org/2000/svg">
<rect width="32" height="32" rx="8" fill="#1D72F2" fill-opacity="0.2"/>
<path d="M20.19 6H11.81C8.17 6 6 8.17 6 11.81V20.18C6 23.83 8.17 26 11.81 26H20.18C23.82 26 25.99 23.83 25.99 20.19V11.81C26 8.17 23.83 6 20.19 6ZM21.35 13.05L19.01 20.59C18.45 22.38 15.94 22.41 15.35 20.63L14.65 18.56C14.46 17.99 14.01 17.53 13.44 17.35L11.36 16.65C9.6 16.06 9.62 13.53 11.41 12.99L18.95 10.64C20.43 10.19 21.82 11.58 21.35 13.05Z" fill="#1D72F2"/>
</svg>
