<svg width="32" height="32" viewBox="0 0 32 32" fill="none" xmlns="http://www.w3.org/2000/svg">
<rect width="32" height="32" rx="8" fill="#1D72F2" fill-opacity="0.2"/>
<path d="M21 26.75H11C10.59 26.75 10.25 26.41 10.25 26C10.25 25.59 10.59 25.25 11 25.25H21C21.41 25.25 21.75 25.59 21.75 26C21.75 26.41 21.41 26.75 21 26.75Z" fill="#1D72F2"/>
<path d="M22 6H10C7.79 6 6 7.79 6 10V19C6 21.21 7.79 23 10 23H22C24.21 23 26 21.21 26 19V10C26 7.79 24.21 6 22 6ZM13.99 11.32C14.55 11.32 15 11.77 15 12.32C15 12.87 14.55 13.32 14 13.32C13.45 13.32 13 12.87 13 12.32C13 11.77 13.44 11.32 13.99 11.32ZM10.84 11.32C11.4 11.32 11.85 11.77 11.85 12.32C11.85 12.87 11.4 13.32 10.85 13.32C10.3 13.32 9.85 12.87 9.85 12.32C9.85 11.77 10.28 11.32 10.84 11.32ZM21.26 18.86H10.76C10.34 18.86 10 18.52 10 18.11C10 17.7 10.33 17.36 10.74 17.36H21.27C21.68 17.36 22.02 17.7 22.02 18.11C22.02 18.52 21.68 18.86 21.26 18.86ZM21.26 13.07H17.58C17.17 13.07 16.83 12.73 16.83 12.32C16.83 11.91 17.17 11.57 17.58 11.57H21.26C21.67 11.57 22.01 11.91 22.01 12.32C22.01 12.73 21.68 13.07 21.26 13.07Z" fill="#1D72F2"/>
</svg>
