<svg width="25" height="24" viewBox="0 0 25 24" fill="none" xmlns="http://www.w3.org/2000/svg">
<path d="M3.5 9.11011V14.8801C3.5 17.0001 3.5 17.0001 5.5 18.3501L11 21.5301C11.83 22.0101 13.18 22.0101 14 21.5301L19.5 18.3501C21.5 17.0001 21.5 17.0001 21.5 14.8901V9.11011C21.5 7.00011 21.5 7.00011 19.5 5.65011L14 2.47011C13.18 1.99011 11.83 1.99011 11 2.47011L5.5 5.65011C3.5 7.00011 3.5 7.00011 3.5 9.11011Z" stroke="#616161" stroke-width="1.5" stroke-linecap="round" stroke-linejoin="round"/>
<path d="M12.5 15C14.1569 15 15.5 13.6569 15.5 12C15.5 10.3431 14.1569 9 12.5 9C10.8431 9 9.5 10.3431 9.5 12C9.5 13.6569 10.8431 15 12.5 15Z" stroke="#616161" stroke-width="1.5" stroke-linecap="round" stroke-linejoin="round"/>
</svg>
